<?xml version="1.0" encoding="UTF-8" standalone="no"?>
<!DOCTYPE svg PUBLIC "-//W3C//DTD SVG 1.1//EN" "http://www.w3.org/Graphics/SVG/1.1/DTD/svg11.dtd">
<svg xmlns="http://www.w3.org/2000/svg" version="1.1" viewBox="0.00 0.00 67.00 67.00">
<g stroke-width="2.00" fill="none" stroke-linecap="butt">
<path stroke="#7f8080" vector-effect="non-scaling-stroke" d="
  M 43.68 29.93
  C 42.99 29.16 42.36 28.39 42.36 27.29
  C 42.38 24.46 42.38 21.55 42.37 18.58
  C 42.37 18.29 42.13 18.05 41.84 18.05
  L 23.21 18.07"
/>
<path stroke="#164258" vector-effect="non-scaling-stroke" d="
  M 23.21 18.07
  L 3.25 17.74
  C 2.59 17.73 2.04 18.27 2.05 18.94
  L 2.45 51.80"
/>
<path stroke="#7f8080" vector-effect="non-scaling-stroke" d="
  M 2.45 51.80
  L 2.68 52.07
  C 2.85 52.27 3.07 52.37 3.34 52.36
  C 7.69 52.17 14.54 51.16 14.67 56.39"
/>
<path stroke="#00161e" vector-effect="non-scaling-stroke" d="
  M 14.67 56.39
  C 14.01 59.11 13.89 61.66 14.31 64.05"
/>
<path stroke="#164258" vector-effect="non-scaling-stroke" d="
  M 14.31 64.05
  C 14.55 64.68 14.95 65.01 15.50 65.02
  C 18.89 65.11 26.89 65.14 39.50 65.10
  C 40.86 65.09 41.66 64.72 41.90 63.98"
/>
<path stroke="#7f8080" vector-effect="non-scaling-stroke" d="
  M 41.90 63.98
  C 42.33 63.96 42.52 63.38 42.47 62.25
  C 42.42 60.93 42.83 59.93 43.71 59.24"
/>
<path stroke="#3d5f6e" vector-effect="non-scaling-stroke" d="
  M 21.59 11.17
  C 22.55 10.29 24.32 10.01 24.08 8.34
  C 24.03 7.97 23.81 7.78 23.43 7.77
  L 16.31 7.71
  C 15.82 7.71 15.55 7.95 15.48 8.44
  C 15.17 10.79 13.64 13.33 10.89 12.67
  C 10.14 12.49 9.94 11.52 10.55 11.06
  C 11.51 10.34 13.14 9.91 12.70 8.28
  C 12.61 7.93 12.38 7.76 12.03 7.75
  L 4.49 7.56
  C 3.15 7.53 2.48 8.18 2.49 9.51
  L 2.50 14.30
  C 2.50 15.17 2.93 15.60 3.80 15.60
  L 41.98 15.52
  C 42.26 15.52 42.49 15.29 42.49 15.01
  L 42.47 9.62
  C 42.47 8.67 41.75 7.88 40.80 7.80
  L 39.55 7.70
  C 38.50 7.61 37.92 8.08 37.80 9.13
  C 37.55 11.23 36.29 12.52 34.00 12.99
  C 33.32 13.13 32.87 12.87 32.65 12.21
  L 32.53 11.85
  C 32.35 11.32 32.68 10.75 33.23 10.64
  C 34.48 10.39 35.23 9.75 35.49 8.70
  C 35.60 8.26 35.27 7.83 34.81 7.82
  L 27.73 7.72
  C 27.17 7.71 26.70 8.14 26.64 8.70
  C 26.41 11.24 24.79 13.22 22.04 12.70
  C 21.31 12.57 21.05 11.67 21.59 11.17"
/>
<path stroke="#3d5f6e" vector-effect="non-scaling-stroke" d="
  M 5.40 54.56
  C 4.81 54.53 4.49 55.25 4.91 55.67
  L 11.18 61.98
  C 11.60 62.40 12.32 62.09 12.29 61.50
  L 12.07 55.45
  C 12.06 55.11 11.79 54.84 11.45 54.82
  L 5.40 54.56"
/>
<path stroke="#7f8080" vector-effect="non-scaling-stroke" d="
  M 43.69 57.93
  C 42.73 58.34 41.87 58.87 41.11 59.54"
/>
<path stroke="#2f5769" vector-effect="non-scaling-stroke" d="
  M 41.11 59.54
  C 39.80 59.62 39.21 59.19 39.36 58.26
  C 39.71 55.99 39.81 53.70 39.68 51.41"
/>
<path stroke="#7f8080" vector-effect="non-scaling-stroke" d="
  M 39.68 51.41
  C 39.75 49.48 39.97 48.18 40.33 47.52
  C 41.50 45.37 42.67 43.30 43.86 41.30"
/>
<path stroke="#2f5769" vector-effect="non-scaling-stroke" d="
  M 58.23 23.06
  L 61.93 25.25
  C 62.36 25.51 62.92 25.37 63.18 24.93
  L 63.69 24.07
  C 64.74 22.30 64.46 20.20 63.07 19.37
  L 62.85 19.24
  C 61.46 18.41 59.48 19.18 58.43 20.94
  L 57.91 21.81
  C 57.66 22.24 57.80 22.80 58.23 23.06"
/>
<path stroke="#2f5769" vector-effect="non-scaling-stroke" d="
  M 61.0965 28.3041
  C 61.29 27.97 61.18 27.54 60.8403 27.3478
  L 57.0297 25.1478
  C 56.69 24.95 56.27 25.07 56.0735 25.4041
  L 43.5035 47.1759
  C 43.31 47.51 43.42 47.94 43.7597 48.1322
  L 47.5703 50.3322
  C 47.91 50.53 48.33 50.41 48.5265 50.0759
  L 61.0965 28.3041"
/>
<path stroke="#2f5769" vector-effect="non-scaling-stroke" d="
  M 45.96 53.11
  C 46.28 52.89 46.27 52.41 45.94 52.21
  L 43.04 50.45
  C 42.70 50.24 42.28 50.45 42.23 50.84
  L 41.77 54.87
  C 41.72 55.32 42.22 55.62 42.59 55.37
  L 45.96 53.11"
/>
<path stroke="#95c1d7" vector-effect="non-scaling-stroke" d="
  M 23.21 18.07
  L 4.85 18.04
  C 3.85 18.04 3.04 18.84 3.02 19.84
  L 2.45 51.80"
/>
<path stroke="#7f8080" vector-effect="non-scaling-stroke" d="
  M 43.70 31.78
  C 43.02 32.25 42.62 32.81 42.51 33.47
  C 42.46 33.82 42.56 34.11 42.81 34.35
  L 43.78 35.26"
/>
<path stroke="#aed6e8" vector-effect="non-scaling-stroke" d="
  M 39.68 51.41
  C 38.64 53.89 38.39 56.51 38.94 59.26
  C 39.01 59.59 39.21 59.80 39.54 59.87
  C 40.14 60.00 40.66 59.89 41.11 59.54"
/>
<path stroke="#95c1d7" vector-effect="non-scaling-stroke" d="
  M 41.90 63.98
  L 15.95 63.76
  C 15.34 63.75 14.88 63.23 14.94 62.63
  C 15.05 61.58 14.98 60.67 14.72 59.90"
/>
<path stroke="#7f959d" vector-effect="non-scaling-stroke" d="
  M 14.72 59.90
  L 14.67 56.39"
/>
<path stroke="#818c94" vector-effect="non-scaling-stroke" d="
  M 15.17 22.63
  C 14.13 23.22 13.83 23.91 14.28 24.72
  C 14.53 25.17 15.00 25.45 15.51 25.46
  C 21.91 25.53 28.51 25.51 35.30 25.40
  C 35.69 25.39 36.02 25.26 36.27 25.00
  C 36.68 24.58 36.77 24.08 36.54 23.49
  C 36.42 23.18 36.19 23.00 35.86 22.97
  L 33.09 22.66"
/>
<path stroke="#bcdeed" vector-effect="non-scaling-stroke" d="
  M 33.09 22.66
  C 27.08 21.93 21.10 21.92 15.17 22.63"
/>
<path stroke="#3e6b82" vector-effect="non-scaling-stroke" d="
  M 33.09 22.66
  L 15.17 22.63"
/>
<path stroke="#7f959d" vector-effect="non-scaling-stroke" d="
  M 10.98 24.09
  C 10.98 23.36 10.38 22.76 9.65 22.76
  C 8.92 22.76 8.32 23.36 8.32 24.09
  C 8.32 24.82 8.92 25.42 9.65 25.42
  C 10.38 25.42 10.98 24.82 10.98 24.09"
/>
<path stroke="#7f959d" vector-effect="non-scaling-stroke" d="
  M 36.6800 31.3647
  C 36.68 30.61 36.07 29.99 35.3124 29.9924
  L 9.6925 29.9476
  C 8.94 29.95 8.32 30.56 8.3201 31.3153
  L 8.3200 31.3953
  C 8.32 32.15 8.93 32.77 9.6876 32.7676
  L 35.3075 32.8124
  C 36.06 32.81 36.68 32.20 36.6799 31.4447
  L 36.6800 31.3647"
/>
<path stroke="#818c94" vector-effect="non-scaling-stroke" d="
  M 36.6300 38.7240
  C 36.63 37.95 36.01 37.32 35.2373 37.3167
  L 9.7577 37.1833
  C 8.98 37.18 8.35 37.80 8.3504 38.5760
  L 8.3500 38.6360
  C 8.35 39.41 8.97 40.04 9.7427 40.0433
  L 35.2223 40.1767
  C 36.00 40.18 36.63 39.56 36.6296 38.7840
  L 36.6300 38.7240"
/>
<path stroke="#818c94" vector-effect="non-scaling-stroke" d="
  M 8.63 44.68
  C 8.28 45.85 8.31 46.76 8.72 47.43"
/>
<path stroke="#bcdeed" vector-effect="non-scaling-stroke" d="
  M 8.72 47.43
  C 17.55 48.28 26.39 48.30 35.26 47.47"
/>
<path stroke="#818c94" vector-effect="non-scaling-stroke" d="
  M 35.26 47.47
  C 36.05 47.21 36.50 46.80 36.61 46.25
  C 36.78 45.39 36.27 44.85 35.08 44.64"
/>
<path stroke="#bcdeed" vector-effect="non-scaling-stroke" d="
  M 35.08 44.64
  C 26.21 43.81 17.40 43.82 8.63 44.68"
/>
<path stroke="#3e6b82" vector-effect="non-scaling-stroke" d="
  M 35.08 44.64
  L 8.63 44.68"
/>
<path stroke="#3e6b82" vector-effect="non-scaling-stroke" d="
  M 35.26 47.47
  C 26.41 46.97 17.57 46.96 8.72 47.43"
/>
<path stroke="#165774" vector-effect="non-scaling-stroke" d="
  M 14.72 59.90
  L 14.31 64.05"
/>
</g>
<path fill="#000101" d="
  M 10.78 0.00
  L 11.59 0.00
  C 14.21 0.57 15.51 2.08 15.48 4.55
  C 15.48 4.94 15.79 5.25 16.18 5.26
  L 17.75 5.26
  C 18.19 5.27 18.41 5.05 18.40 4.60
  C 18.37 1.98 19.66 0.45 22.27 0.00
  L 22.86 0.00
  C 25.30 0.56 26.57 2.06 26.67 4.50
  C 26.70 5.01 26.96 5.27 27.47 5.27
  L 28.69 5.27
  C 29.20 5.27 29.49 5.01 29.54 4.50
  C 29.79 2.03 31.05 0.53 33.30 0.00
  L 34.32 0.00
  C 36.59 0.62 37.81 2.14 37.96 4.57
  C 37.99 5.02 38.24 5.25 38.70 5.25
  C 41.71 5.26 45.02 5.31 45.03 9.36
  C 45.04 15.41 45.04 21.49 45.02 27.61
  C 45.02 27.96 44.91 28.27 44.70 28.55
  L 43.68 29.93
  C 42.99 29.16 42.36 28.39 42.36 27.29
  C 42.38 24.46 42.38 21.55 42.37 18.58
  C 42.37 18.29 42.13 18.05 41.84 18.05
  L 23.21 18.07
  L 3.25 17.74
  C 2.59 17.73 2.04 18.27 2.05 18.94
  L 2.45 51.80
  L 2.68 52.07
  C 2.85 52.27 3.07 52.37 3.34 52.36
  C 7.69 52.17 14.54 51.16 14.67 56.39
  C 14.01 59.11 13.89 61.66 14.31 64.05
  C 14.55 64.68 14.95 65.01 15.50 65.02
  C 18.89 65.11 26.89 65.14 39.50 65.10
  C 40.86 65.09 41.66 64.72 41.90 63.98
  C 42.33 63.96 42.52 63.38 42.47 62.25
  C 42.42 60.93 42.83 59.93 43.71 59.24
  C 44.48 59.53 44.92 60.20 45.01 61.25
  C 45.30 64.36 44.17 66.27 41.64 67.00
  L 13.04 67.00
  L 0.00 53.85
  L 0.00 8.68
  C 0.57 6.21 2.58 5.09 6.02 5.33
  C 6.79 5.38 7.15 5.03 7.09 4.26
  C 6.91 2.05 8.14 0.63 10.78 0.00
  Z
  M 9.97 5.23
  L 12.41 5.23
  C 12.63 5.23 12.82 5.05 12.82 4.82
  L 12.82 4.64
  C 12.82 3.60 12.16 2.75 11.35 2.75
  L 11.03 2.75
  C 10.22 2.75 9.56 3.59 9.56 4.64
  L 9.56 4.82
  C 9.56 5.04 9.74 5.23 9.97 5.23
  Z
  M 21.36 5.25
  L 23.68 5.19
  C 23.93 5.19 24.13 4.98 24.13 4.72
  L 24.12 4.30
  C 24.10 3.44 23.43 2.76 22.63 2.78
  L 22.29 2.78
  C 21.49 2.80 20.86 3.52 20.88 4.38
  L 20.89 4.80
  C 20.89 5.05 21.10 5.25 21.36 5.25
  Z
  M 32.72 5.16
  L 34.88 5.20
  C 35.13 5.20 35.33 5.01 35.34 4.76
  L 35.34 4.33
  C 35.36 3.48 34.76 2.78 34.00 2.76
  L 33.68 2.76
  C 32.92 2.74 32.30 3.42 32.28 4.27
  L 32.28 4.70
  C 32.27 4.95 32.47 5.16 32.72 5.16
  Z
  M 21.59 11.17
  C 22.55 10.29 24.32 10.01 24.08 8.34
  C 24.03 7.97 23.81 7.78 23.43 7.77
  L 16.31 7.71
  C 15.82 7.71 15.55 7.95 15.48 8.44
  C 15.17 10.79 13.64 13.33 10.89 12.67
  C 10.14 12.49 9.94 11.52 10.55 11.06
  C 11.51 10.34 13.14 9.91 12.70 8.28
  C 12.61 7.93 12.38 7.76 12.03 7.75
  L 4.49 7.56
  C 3.15 7.53 2.48 8.18 2.49 9.51
  L 2.50 14.30
  C 2.50 15.17 2.93 15.60 3.80 15.60
  L 41.98 15.52
  C 42.26 15.52 42.49 15.29 42.49 15.01
  L 42.47 9.62
  C 42.47 8.67 41.75 7.88 40.80 7.80
  L 39.55 7.70
  C 38.50 7.61 37.92 8.08 37.80 9.13
  C 37.55 11.23 36.29 12.52 34.00 12.99
  C 33.32 13.13 32.87 12.87 32.65 12.21
  L 32.53 11.85
  C 32.35 11.32 32.68 10.75 33.23 10.64
  C 34.48 10.39 35.23 9.75 35.49 8.70
  C 35.60 8.26 35.27 7.83 34.81 7.82
  L 27.73 7.72
  C 27.17 7.71 26.70 8.14 26.64 8.70
  C 26.41 11.24 24.79 13.22 22.04 12.70
  C 21.31 12.57 21.05 11.67 21.59 11.17
  Z
  M 5.40 54.56
  C 4.81 54.53 4.49 55.25 4.91 55.67
  L 11.18 61.98
  C 11.60 62.40 12.32 62.09 12.29 61.50
  L 12.07 55.45
  C 12.06 55.11 11.79 54.84 11.45 54.82
  L 5.40 54.56
  Z"
/>
<path fill="#79bddb" d="
  M 21.59 11.17
  C 21.05 11.67 21.31 12.57 22.04 12.70
  C 24.79 13.22 26.41 11.24 26.64 8.70
  C 26.70 8.14 27.17 7.71 27.73 7.72
  L 34.81 7.82
  C 35.27 7.83 35.60 8.26 35.49 8.70
  C 35.23 9.75 34.48 10.39 33.23 10.64
  C 32.68 10.75 32.35 11.32 32.53 11.85
  L 32.65 12.21
  C 32.87 12.87 33.32 13.13 34.00 12.99
  C 36.29 12.52 37.55 11.23 37.80 9.13
  C 37.92 8.08 38.50 7.61 39.55 7.70
  L 40.80 7.80
  C 41.75 7.88 42.47 8.67 42.47 9.62
  L 42.49 15.01
  C 42.49 15.29 42.26 15.52 41.98 15.52
  L 3.80 15.60
  C 2.93 15.60 2.50 15.17 2.50 14.30
  L 2.49 9.51
  C 2.48 8.18 3.15 7.53 4.49 7.56
  L 12.03 7.75
  C 12.38 7.76 12.61 7.93 12.70 8.28
  C 13.14 9.91 11.51 10.34 10.55 11.06
  C 9.94 11.52 10.14 12.49 10.89 12.67
  C 13.64 13.33 15.17 10.79 15.48 8.44
  C 15.55 7.95 15.82 7.71 16.31 7.71
  L 23.43 7.77
  C 23.81 7.78 24.03 7.97 24.08 8.34
  C 24.32 10.01 22.55 10.29 21.59 11.17
  Z"
/>
<path fill="#000101" d="
  M 43.69 57.93
  C 42.73 58.34 41.87 58.87 41.11 59.54
  C 39.80 59.62 39.21 59.19 39.36 58.26
  C 39.71 55.99 39.81 53.70 39.68 51.41
  C 39.75 49.48 39.97 48.18 40.33 47.52
  C 41.50 45.37 42.67 43.30 43.86 41.30
  C 48.02 34.08 52.16 26.91 56.28 19.78
  C 60.35 12.73 69.99 18.06 66.02 24.96
  C 61.22 33.31 56.20 42.02 50.97 51.09
  C 50.32 52.22 49.49 53.17 48.47 53.96
  C 46.80 55.26 45.21 56.58 43.69 57.93
  Z
  M 58.23 23.06
  L 61.93 25.25
  C 62.36 25.51 62.92 25.37 63.18 24.93
  L 63.69 24.07
  C 64.74 22.30 64.46 20.20 63.07 19.37
  L 62.85 19.24
  C 61.46 18.41 59.48 19.18 58.43 20.94
  L 57.91 21.81
  C 57.66 22.24 57.80 22.80 58.23 23.06
  Z
  M 61.0965 28.3041
  C 61.29 27.97 61.18 27.54 60.8403 27.3478
  L 57.0297 25.1478
  C 56.69 24.95 56.27 25.07 56.0735 25.4041
  L 43.5035 47.1759
  C 43.31 47.51 43.42 47.94 43.7597 48.1322
  L 47.5703 50.3322
  C 47.91 50.53 48.33 50.41 48.5265 50.0759
  L 61.0965 28.3041
  Z
  M 45.96 53.11
  C 46.28 52.89 46.27 52.41 45.94 52.21
  L 43.04 50.45
  C 42.70 50.24 42.28 50.45 42.23 50.84
  L 41.77 54.87
  C 41.72 55.32 42.22 55.62 42.59 55.37
  L 45.96 53.11
  Z"
/>
<path fill="#2b82ae" d="
  M 23.21 18.07
  L 4.85 18.04
  C 3.85 18.04 3.04 18.84 3.02 19.84
  L 2.45 51.80
  L 2.05 18.94
  C 2.04 18.27 2.59 17.73 3.25 17.74
  L 23.21 18.07
  Z"
/>
<path fill="#feffff" d="
  M 23.21 18.07
  L 41.84 18.05
  C 42.13 18.05 42.37 18.29 42.37 18.58
  C 42.38 21.55 42.38 24.46 42.36 27.29
  C 42.36 28.39 42.99 29.16 43.68 29.93
  C 43.79 30.53 43.80 31.15 43.70 31.78
  C 43.02 32.25 42.62 32.81 42.51 33.47
  C 42.46 33.82 42.56 34.11 42.81 34.35
  L 43.78 35.26
  L 43.86 41.30
  C 42.67 43.30 41.50 45.37 40.33 47.52
  C 39.97 48.18 39.75 49.48 39.68 51.41
  C 38.64 53.89 38.39 56.51 38.94 59.26
  C 39.01 59.59 39.21 59.80 39.54 59.87
  C 40.14 60.00 40.66 59.89 41.11 59.54
  C 41.87 58.87 42.73 58.34 43.69 57.93
  L 43.71 59.24
  C 42.83 59.93 42.42 60.93 42.47 62.25
  C 42.52 63.38 42.33 63.96 41.90 63.98
  L 15.95 63.76
  C 15.34 63.75 14.88 63.23 14.94 62.63
  C 15.05 61.58 14.98 60.67 14.72 59.90
  L 14.67 56.39
  C 14.54 51.16 7.69 52.17 3.34 52.36
  C 3.07 52.37 2.85 52.27 2.68 52.07
  L 2.45 51.80
  L 3.02 19.84
  C 3.04 18.84 3.85 18.04 4.85 18.04
  L 23.21 18.07
  Z
  M 15.17 22.63
  C 14.13 23.22 13.83 23.91 14.28 24.72
  C 14.53 25.17 15.00 25.45 15.51 25.46
  C 21.91 25.53 28.51 25.51 35.30 25.40
  C 35.69 25.39 36.02 25.26 36.27 25.00
  C 36.68 24.58 36.77 24.08 36.54 23.49
  C 36.42 23.18 36.19 23.00 35.86 22.97
  L 33.09 22.66
  C 27.08 21.93 21.10 21.92 15.17 22.63
  Z
  M 10.98 24.09
  C 10.98 23.36 10.38 22.76 9.65 22.76
  C 8.92 22.76 8.32 23.36 8.32 24.09
  C 8.32 24.82 8.92 25.42 9.65 25.42
  C 10.38 25.42 10.98 24.82 10.98 24.09
  Z
  M 36.6800 31.3647
  C 36.68 30.61 36.07 29.99 35.3124 29.9924
  L 9.6925 29.9476
  C 8.94 29.95 8.32 30.56 8.3201 31.3153
  L 8.3200 31.3953
  C 8.32 32.15 8.93 32.77 9.6876 32.7676
  L 35.3075 32.8124
  C 36.06 32.81 36.68 32.20 36.6799 31.4447
  L 36.6800 31.3647
  Z
  M 36.6300 38.7240
  C 36.63 37.95 36.01 37.32 35.2373 37.3167
  L 9.7577 37.1833
  C 8.98 37.18 8.35 37.80 8.3504 38.5760
  L 8.3500 38.6360
  C 8.35 39.41 8.97 40.04 9.7427 40.0433
  L 35.2223 40.1767
  C 36.00 40.18 36.63 39.56 36.6296 38.7840
  L 36.6300 38.7240
  Z
  M 8.63 44.68
  C 8.28 45.85 8.31 46.76 8.72 47.43
  C 17.55 48.28 26.39 48.30 35.26 47.47
  C 36.05 47.21 36.50 46.80 36.61 46.25
  C 36.78 45.39 36.27 44.85 35.08 44.64
  C 26.21 43.81 17.40 43.82 8.63 44.68
  Z"
/>
<path fill="#5eadd0" d="
  M 58.23 23.06
  C 57.80 22.80 57.66 22.24 57.91 21.81
  L 58.43 20.94
  C 59.48 19.18 61.46 18.41 62.85 19.24
  L 63.07 19.37
  C 64.46 20.20 64.74 22.30 63.69 24.07
  L 63.18 24.93
  C 62.92 25.37 62.36 25.51 61.93 25.25
  L 58.23 23.06
  Z"
/>
<path fill="#79bddb" d="
  M 33.09 22.66
  L 15.17 22.63
  C 21.10 21.92 27.08 21.93 33.09 22.66
  Z"
/>
<circle fill="#002b3a" cx="9.65" cy="24.09" r="1.33"/>
<path fill="#031928" d="
  M 15.17 22.63
  L 33.09 22.66
  L 35.86 22.97
  C 36.19 23.00 36.42 23.18 36.54 23.49
  C 36.77 24.08 36.68 24.58 36.27 25.00
  C 36.02 25.26 35.69 25.39 35.30 25.40
  C 28.51 25.51 21.91 25.53 15.51 25.46
  C 15.00 25.45 14.53 25.17 14.28 24.72
  C 13.83 23.91 14.13 23.22 15.17 22.63
  Z"
/>
<rect fill="#5eadd0" x="-2.90" y="-13.27" transform="translate(52.30,37.74) rotate(30.0)" width="5.80" height="26.54" rx="0.70"/>
<rect fill="#002b3a" x="-14.18" y="-1.41" transform="translate(22.50,31.38) rotate(0.1)" width="28.36" height="2.82" rx="1.37"/>
<path fill="#000101" d="
  M 43.70 31.78
  L 44.66 32.98
  C 44.87 33.25 44.94 33.54 44.85 33.86
  C 44.72 34.35 44.36 34.82 43.78 35.26
  L 42.81 34.35
  C 42.56 34.11 42.46 33.82 42.51 33.47
  C 42.62 32.81 43.02 32.25 43.70 31.78
  Z"
/>
<rect fill="#031928" x="-14.14" y="-1.43" transform="translate(22.49,38.68) rotate(0.3)" width="28.28" height="2.86" rx="1.40"/>
<path fill="#79bddb" d="
  M 35.08 44.64
  L 8.63 44.68
  C 17.40 43.82 26.21 43.81 35.08 44.64
  Z"
/>
<path fill="#031928" d="
  M 35.08 44.64
  C 36.27 44.85 36.78 45.39 36.61 46.25
  C 36.50 46.80 36.05 47.21 35.26 47.47
  C 26.41 46.97 17.57 46.96 8.72 47.43
  C 8.31 46.76 8.28 45.85 8.63 44.68
  L 35.08 44.64
  Z"
/>
<path fill="#79bddb" d="
  M 8.72 47.43
  C 17.57 46.96 26.41 46.97 35.26 47.47
  C 26.39 48.30 17.55 48.28 8.72 47.43
  Z"
/>
<path fill="#5eadd0" d="
  M 45.96 53.11
  L 42.59 55.37
  C 42.22 55.62 41.72 55.32 41.77 54.87
  L 42.23 50.84
  C 42.28 50.45 42.70 50.24 43.04 50.45
  L 45.94 52.21
  C 46.27 52.41 46.28 52.89 45.96 53.11
  Z"
/>
<path fill="#5eadd0" d="
  M 39.68 51.41
  C 39.81 53.70 39.71 55.99 39.36 58.26
  C 39.21 59.19 39.80 59.62 41.11 59.54
  C 40.66 59.89 40.14 60.00 39.54 59.87
  C 39.21 59.80 39.01 59.59 38.94 59.26
  C 38.39 56.51 38.64 53.89 39.68 51.41
  Z"
/>
<path fill="#79bddb" d="
  M 5.40 54.56
  L 11.45 54.82
  C 11.79 54.84 12.06 55.11 12.07 55.45
  L 12.29 61.50
  C 12.32 62.09 11.60 62.40 11.18 61.98
  L 4.91 55.67
  C 4.49 55.25 4.81 54.53 5.40 54.56
  Z"
/>
<path fill="#002b3a" d="
  M 14.67 56.39
  L 14.72 59.90
  L 14.31 64.05
  C 13.89 61.66 14.01 59.11 14.67 56.39
  Z"
/>
<path fill="#2b82ae" d="
  M 14.72 59.90
  C 14.98 60.67 15.05 61.58 14.94 62.63
  C 14.88 63.23 15.34 63.75 15.95 63.76
  L 41.90 63.98
  C 41.66 64.72 40.86 65.09 39.50 65.10
  C 26.89 65.14 18.89 65.11 15.50 65.02
  C 14.95 65.01 14.55 64.68 14.31 64.05
  L 14.72 59.90
  Z"
/>
</svg>
