<?xml version="1.0" encoding="UTF-8" standalone="no"?>
<!DOCTYPE svg PUBLIC "-//W3C//DTD SVG 1.1//EN" "http://www.w3.org/Graphics/SVG/1.1/DTD/svg11.dtd">
<svg xmlns="http://www.w3.org/2000/svg" version="1.1" viewBox="0.00 0.00 1024.00 1024.00">
<g stroke-width="2.00" fill="none" stroke-linecap="butt">
<path stroke="#889c83" vector-effect="non-scaling-stroke" d="
  M 286.90 768.72
  L 287.90 748.47"
/>
<path stroke="#16855f" vector-effect="non-scaling-stroke" d="
  M 289.89 598.59
  C 299.97 593.49 310.59 590.74 321.76 590.33
  C 326.30 590.17 331.12 590.13 336.23 590.21
  C 339.81 590.26 344.14 591.41 347.52 590.25
  C 352.38 588.58 355.57 587.83 357.08 588.02
  C 362.85 588.72 367.04 591.59 369.66 596.62
  C 371.33 599.82 371.46 603.43 372.02 606.93
  C 372.34 608.95 371.75 610.57 370.24 611.78
  C 367.84 613.73 365.38 616.05 362.54 617.26
  C 355.50 620.29 348.96 617.72 343.07 613.40
  C 341.96 612.59 340.64 612.17 339.13 612.14
  C 329.89 611.98 320.10 611.04 311.32 613.53
  C 302.89 615.92 295.84 620.54 290.17 627.39"
/>
<path stroke="#16855f" vector-effect="non-scaling-stroke" d="
  M 291.48 663.74
  C 291.92 664.56 292.47 665.23 293.12 665.75
  C 293.40 665.98 293.67 665.97 293.93 665.72
  C 299.76 660.13 305.97 654.88 313.78 653.00
  C 320.51 651.38 327.44 650.91 334.59 651.58
  C 334.76 651.60 334.89 651.69 334.97 651.84
  L 335.12 652.11
  C 335.29 652.43 335.56 652.60 335.92 652.61
  C 337.35 652.65 338.71 652.70 340.02 652.76
  C 342.44 652.87 344.45 654.17 346.86 653.24
  C 352.53 651.03 358.23 649.48 363.98 652.97
  C 370.10 656.69 372.32 661.91 370.65 668.63
  C 369.92 671.54 367.86 673.77 366.94 676.68
  C 366.42 678.31 365.16 679.48 363.15 680.20
  C 356.24 682.68 349.44 680.31 344.02 675.77
  C 343.00 674.92 341.51 674.03 340.18 673.95
  C 334.20 673.58 326.05 672.77 320.12 674.97
  C 317.61 675.90 312.01 678.15 310.86 680.76
  C 310.42 681.75 310.19 682.71 310.17 683.65
  C 309.97 691.89 309.90 700.84 309.95 710.50
  C 309.98 715.12 310.70 720.06 312.12 725.33
  C 314.89 735.58 319.52 743.93 325.99 750.39
  C 334.73 759.10 344.69 764.38 355.87 766.25
  C 360.30 766.98 366.43 767.35 374.26 767.34
  C 461.55 767.23 549.39 767.19 637.76 767.24
  C 643.58 767.25 649.30 767.15 654.91 766.96
  C 662.89 766.69 670.36 764.67 677.32 760.90
  C 693.09 752.36 705.79 736.75 708.38 718.60
  C 709.43 711.17 709.15 703.29 709.16 696.32
  C 709.29 559.33 709.42 421.99 709.55 284.30
  C 709.56 275.86 709.12 269.54 708.24 265.35
  C 704.59 247.86 693.01 232.04 677.96 223.01
  C 672.03 219.45 665.66 216.23 658.86 214.84
  C 651.11 213.25 643.33 212.75 635.38 212.75
  C 546.71 212.77 457.89 212.75 368.92 212.70
  C 360.52 212.70 352.71 214.04 345.50 216.71
  C 340.99 218.38 336.95 220.17 333.38 222.06
  C 327.27 225.30 321.67 229.88 316.56 235.80
  C 313.31 239.57 310.28 244.89 307.47 251.75
  C 307.33 252.09 307.12 252.14 306.84 251.90
  C 304.99 250.33 302.81 249.41 300.28 249.14
  C 299.68 249.07 299.29 249.21 299.12 249.54"
/>
<path stroke="#16855f" vector-effect="non-scaling-stroke" d="
  M 290.93 563.58
  C 296.99 560.33 302.72 556.42 308.11 551.84
  C 310.32 549.96 312.10 548.62 313.44 547.83
  C 316.59 545.96 321.56 543.75 325.33 543.47
  C 332.64 542.94 341.14 542.86 346.82 548.32
  C 349.15 550.56 352.17 551.68 355.87 551.67
  C 359.91 551.66 363.92 549.99 367.90 546.64
  C 368.81 545.88 369.28 544.86 369.31 543.59
  C 369.32 543.21 369.42 542.86 369.62 542.53
  C 370.77 540.64 371.54 538.46 371.91 536.01
  C 371.95 535.74 371.93 535.47 371.84 535.22
  C 371.59 534.48 371.39 533.72 371.26 532.94
  C 370.68 529.46 369.18 526.89 366.77 525.22
  C 364.27 523.49 361.17 522.12 357.47 521.09
  C 354.38 520.23 350.59 521.99 347.80 523.17
  C 344.29 524.66 340.56 523.34 336.86 523.17
  C 330.93 522.91 325.40 522.97 320.27 523.35
  C 310.10 524.09 301.50 528.79 294.44 536.19
  C 294.00 536.65 293.49 536.92 292.92 537.01
  C 292.07 537.14 291.50 536.79 291.22 535.96"
/>
<path stroke="#16855f" vector-effect="non-scaling-stroke" d="
  M 292.59 491.22
  C 297.38 485.87 303.51 481.92 310.97 479.37
  C 312.49 478.85 314.48 478.73 316.15 478.19
  C 317.78 477.66 319.05 477.36 319.98 477.27
  C 325.98 476.70 332.55 476.54 339.70 476.81
  C 341.68 476.89 343.07 477.19 343.88 477.71
  C 351.44 482.57 359.80 484.11 367.03 477.89
  C 368.05 477.01 368.76 475.86 369.15 474.44
  C 369.56 472.96 370.10 471.49 370.77 470.03
  C 372.61 465.99 372.27 462.04 369.76 458.18
  C 366.84 453.72 360.34 449.69 354.76 450.97
  C 349.38 452.20 345.90 456.36 339.98 455.54
  C 338.27 455.31 336.60 455.20 334.95 455.22
  C 328.35 455.30 321.37 455.66 314.02 456.31
  C 311.98 456.50 310.72 457.75 308.54 457.54
  C 308.17 457.50 307.82 457.56 307.49 457.71
  C 305.26 458.72 302.86 459.00 300.56 459.99
  C 298.08 461.06 295.55 462.15 292.98 463.27"
/>
<path stroke="#16855f" vector-effect="non-scaling-stroke" d="
  M 292.66 459.21
  C 292.96 458.54 293.39 458.10 293.94 457.89
  C 294.72 457.59 295.50 457.22 296.29 456.77
  C 296.56 456.61 296.60 456.41 296.39 456.18
  L 292.26 451.47"
/>
<path stroke="#16855f" vector-effect="non-scaling-stroke" d="
  M 292.30 415.80
  C 296.37 411.57 301.11 408.48 306.53 406.52
  C 310.78 404.99 315.86 404.25 321.77 404.32
  C 328.09 404.39 334.07 404.62 339.71 404.99
  C 341.22 405.09 342.57 405.58 343.74 406.45
  C 346.67 408.62 350.16 410.06 354.23 410.75
  C 357.50 411.31 360.84 410.67 364.26 408.82
  C 366.90 407.40 367.98 403.73 369.35 401.20
  C 371.64 396.97 371.82 392.88 369.88 388.93
  C 365.53 380.10 354.94 378.82 346.97 382.90
  C 345.67 383.56 344.34 384.18 342.98 384.77
  C 342.27 385.07 341.46 384.72 341.19 384.00
  C 341.06 383.63 340.82 383.37 340.48 383.20
  C 340.17 383.06 339.84 382.98 339.47 382.96
  C 332.86 382.69 325.45 382.67 317.25 382.89
  C 308.65 383.13 300.51 385.05 292.83 388.64"
/>
<path stroke="#16855f" vector-effect="non-scaling-stroke" d="
  M 295.44 360.69
  C 296.44 359.68 297.21 359.02 297.74 358.70
  C 301.62 356.41 305.60 354.28 308.81 350.96
  C 312.32 347.34 316.75 344.51 322.12 342.48
  C 323.19 342.08 324.31 341.89 325.49 341.92
  C 329.04 342.01 332.49 342.00 335.85 341.90
  C 340.57 341.75 344.80 343.33 348.67 345.76
  C 353.55 348.83 361.93 346.25 366.76 344.26
  C 367.11 344.11 367.38 343.88 367.57 343.57
  C 371.28 337.59 373.52 330.52 368.62 324.52
  C 362.71 317.29 354.94 317.54 347.09 321.09
  C 345.49 321.81 343.66 321.95 341.60 321.50
  C 341.40 321.45 341.24 321.34 341.12 321.17
  L 340.93 320.88
  C 340.78 320.65 340.56 320.54 340.29 320.53
  C 328.78 320.37 321.01 320.56 316.99 321.11
  C 310.30 322.01 303.55 325.09 296.73 330.35"
/>
<path stroke="#16855f" vector-effect="non-scaling-stroke" d="
  M 298.15 285.59
  C 299.78 284.19 301.32 283.17 302.77 282.54
  C 304.72 281.68 306.34 280.69 308.30 280.22
  C 317.62 277.99 327.75 277.45 338.68 278.62
  C 340.43 278.81 342.07 279.40 343.59 280.41
  C 350.63 285.08 357.91 286.75 365.43 281.71
  C 367.98 280.00 369.42 277.84 369.75 275.22
  C 370.16 271.91 370.63 268.49 371.16 264.95
  C 371.23 264.51 371.08 264.15 370.73 263.88
  C 370.38 263.61 370.23 263.26 370.27 262.82
  C 370.31 262.39 370.14 262.08 369.77 261.88
  C 369.41 261.69 369.23 261.40 369.22 261.01
  C 369.21 260.65 369.08 260.34 368.83 260.08
  C 368.13 259.35 367.41 258.63 366.67 257.91
  C 365.97 257.22 365.22 256.73 364.41 256.44
  C 363.40 256.07 362.50 255.58 361.72 254.95
  C 361.39 254.70 361.03 254.63 360.64 254.74
  C 360.15 254.89 359.72 254.80 359.36 254.46
  C 359.14 254.25 358.88 254.11 358.59 254.04
  C 356.43 253.51 354.39 253.67 352.47 254.54
  C 352.17 254.68 351.85 254.75 351.52 254.74
  L 351.00 254.74
  C 350.59 254.73 350.19 254.93 349.94 255.26
  C 349.65 255.63 349.26 255.79 348.79 255.72
  C 348.39 255.66 348.11 255.82 347.95 256.19
  C 347.78 256.60 347.48 256.76 347.04 256.69
  C 346.70 256.63 346.42 256.73 346.19 257.00
  C 345.27 258.05 344.23 258.13 343.08 257.26
  C 342.79 257.04 342.47 256.93 342.11 256.94
  C 340.54 256.96 339.50 256.29 337.92 256.25
  C 330.73 256.08 322.95 256.39 314.58 257.20
  C 311.17 257.52 308.32 258.84 305.09 259.58
  C 302.25 260.23 299.37 260.87 296.44 261.49"
/>
<path stroke="#889c83" vector-effect="non-scaling-stroke" d="
  M 719.14 751.23
  C 710.96 763.85 700.51 773.60 687.78 780.49
  C 681.33 783.98 674.35 786.46 666.86 787.92
  C 663.02 788.67 657.76 789.02 651.07 788.98
  C 640.60 788.91 630.16 789.00 619.74 789.25"
/>
<path stroke="#889c83" vector-effect="non-scaling-stroke" d="
  M 614.00 789.32
  L 609.82 789.35"
/>
<path stroke="#889c83" vector-effect="non-scaling-stroke" d="
  M 606.02 789.37
  C 594.90 789.30 583.77 789.02 572.66 789.01
  C 525.86 788.98 479.06 788.98 432.25 789.03
  C 429.52 789.03 426.77 789.02 424.00 789.01
  C 404.51 788.92 385.01 788.96 365.50 789.14
  C 354.03 789.25 343.36 787.19 333.49 782.97
  C 330.41 781.66 327.50 780.11 324.77 778.32
  C 320.57 775.58 316.58 772.61 312.81 769.42
  C 308.04 765.37 304.03 760.89 300.80 755.98
  C 300.35 755.29 299.72 754.94 298.91 754.91
  C 298.33 754.89 297.89 755.43 298.03 755.99
  C 299.20 760.82 300.57 765.38 302.14 769.68
  C 307.66 784.78 317.22 796.84 330.81 805.86
  C 336.27 809.49 342.18 811.43 348.55 811.69
  C 348.83 811.70 349.05 811.91 349.08 812.19
  C 349.13 812.62 349.35 812.86 349.75 812.93
  C 350.10 812.99 350.44 812.93 350.77 812.76
  C 352.34 811.93 353.47 812.10 354.14 813.29
  C 354.30 813.57 354.54 813.69 354.86 813.66
  C 357.06 813.43 359.34 813.49 361.71 813.82
  C 363.86 814.12 366.08 814.29 368.36 814.33
  C 394.71 814.79 420.14 814.43 446.23 814.67
  C 470.44 814.89 497.45 814.81 527.25 814.42
  C 530.49 814.37 533.74 814.00 537.00 814.00
  C 575.97 814.00 613.84 814.00 650.61 814.00
  C 654.58 814.00 658.44 813.84 662.21 813.51
  C 670.28 812.82 677.47 810.17 684.72 806.83
  C 697.51 800.92 706.68 791.32 712.23 778.05
  C 713.59 774.80 715.45 771.29 716.29 768.01
  C 717.60 762.93 719.26 758.02 721.28 753.28"
/>
<path stroke="#16855f" vector-effect="non-scaling-stroke" d="
  M 626.8067 314.8148
  C 642.59 318.00 658.06 307.34 661.3547 291.0037
  C 664.65 274.67 654.52 258.85 638.7333 255.6652
  C 622.95 252.48 607.48 263.14 604.1853 279.4763
  C 600.89 295.81 611.02 311.63 626.8067 314.8148"
/>
<path stroke="#16855f" vector-effect="non-scaling-stroke" d="
  M 543.21 673.66
  C 563.82 670.48 585.42 661.62 601.64 647.88
  C 618.49 633.60 630.76 616.20 638.47 595.67
  C 648.24 569.66 649.61 544.13 642.58 519.06
  C 639.80 509.13 635.52 499.58 630.77 490.70
  C 623.12 476.39 614.06 460.06 603.59 441.71
  C 600.26 435.86 597.00 430.06 593.83 424.32
  C 577.49 394.71 561.29 365.66 545.23 337.15
  C 537.14 322.79 529.81 308.68 523.39 293.20
  C 523.04 292.37 522.77 291.50 522.56 290.60
  C 522.12 288.67 521.56 288.63 520.88 290.49
  C 516.97 301.15 512.15 311.81 506.44 322.47
  C 496.64 340.75 486.51 359.11 476.04 377.56
  C 463.08 400.39 450.62 422.46 438.67 443.77
  C 435.47 449.46 432.17 455.25 428.77 461.13
  C 423.18 470.77 417.78 480.53 412.56 490.41
  C 408.99 497.16 406.18 503.31 404.13 508.86
  C 393.45 537.79 393.72 566.97 404.93 596.39
  C 415.83 624.99 437.88 650.35 466.36 663.23
  C 480.24 669.51 495.13 674.06 510.25 674.95
  C 522.12 675.64 533.10 675.21 543.21 673.66"
/>
<path stroke="#889c83" vector-effect="non-scaling-stroke" d="
  M 647.20 285.28
  C 647.20 277.35 640.77 270.92 632.84 270.92
  C 624.91 270.92 618.48 277.35 618.48 285.28
  C 618.48 293.21 624.91 299.64 632.84 299.64
  C 640.77 299.64 647.20 293.21 647.20 285.28"
/>
<path stroke="#662423" vector-effect="non-scaling-stroke" d="
  M 518.47 641.09
  C 526.68 641.40 532.15 641.34 534.89 640.93
  C 544.69 639.44 553.81 636.57 562.25 632.33
  C 568.40 629.24 575.04 624.66 582.17 618.59
  C 587.06 614.44 591.46 609.37 595.39 603.40
  C 604.02 590.29 609.08 576.39 610.58 561.72
  C 612.45 543.47 609.09 526.40 600.50 510.53
  C 588.61 488.57 573.07 460.40 553.86 426.03"
/>
<path stroke="#812325" vector-effect="non-scaling-stroke" d="
  M 553.86 426.03
  L 522.32 370.12
  C 521.81 369.22 521.20 369.15 520.49 369.91
  C 519.45 371.02 518.59 372.19 517.90 373.40
  C 514.25 379.85 510.44 386.56 506.49 393.54
  C 505.86 394.64 505.56 395.95 504.99 397.00
  C 498.78 408.48 492.19 419.55 486.10 430.74
  C 480.89 440.30 475.62 449.57 470.30 458.54
  C 469.25 460.32 468.59 462.29 467.52 464.11
  C 463.15 471.54 458.74 479.29 454.27 487.37
  C 453.39 488.96 452.36 490.60 451.18 492.27
  C 450.00 493.95 448.97 495.68 448.09 497.46
  C 445.81 502.08 443.46 506.75 441.05 511.47
  C 437.05 519.31 433.83 527.55 432.55 536.10
  C 431.03 546.19 431.02 558.10 432.53 571.83
  C 432.68 573.20 433.01 574.49 433.51 575.68
  C 435.87 581.33 438.34 587.08 440.93 592.95
  C 445.76 603.89 454.42 612.50 463.38 620.63
  C 468.11 624.92 473.48 628.59 479.50 631.65
  C 491.61 637.80 504.60 640.95 518.47 641.09"
/>
<path stroke="#d10f17" vector-effect="non-scaling-stroke" d="
  M 553.86 426.03
  C 554.21 427.78 554.76 429.47 555.53 431.10
  C 555.65 431.36 555.57 431.46 555.30 431.40
  C 555.23 431.38 555.17 431.39 555.11 431.43
  C 554.94 431.54 554.82 431.68 554.73 431.86
  C 553.93 433.63 552.77 435.13 551.26 436.36
  C 550.47 437.00 549.28 437.14 548.53 437.96
  C 547.84 438.71 546.59 438.37 546.39 437.37
  C 546.26 436.78 545.75 436.24 544.84 435.75"
/>
<path stroke="#812325" vector-effect="non-scaling-stroke" d="
  M 544.84 435.75
  C 542.63 432.01 540.56 428.17 538.65 424.22
  C 535.72 418.20 532.71 413.61 529.08 408.58
  C 528.87 408.30 528.44 408.33 528.28 408.64
  C 528.06 409.07 528.03 409.51 528.20 409.97
  C 530.06 415.01 533.08 419.75 535.39 424.83
  C 538.77 432.28 542.30 440.09 545.99 448.24
  C 549.00 454.88 552.06 461.84 555.17 469.11
  C 558.21 476.21 562.76 485.55 568.81 497.12
  C 572.90 504.93 577.53 514.56 582.70 526.01
  C 583.74 528.31 584.61 530.65 585.30 533.02"
/>
<path stroke="#d10f17" vector-effect="non-scaling-stroke" d="
  M 585.30 533.02
  L 585.33 536.66
  C 585.33 536.97 585.18 537.09 584.89 537.00
  L 579.09 535.36"
/>
<path stroke="#f5878c" vector-effect="non-scaling-stroke" d="
  M 579.09 535.36
  C 576.24 528.33 571.90 522.26 566.07 517.17
  C 558.10 510.20 548.77 507.12 538.06 507.93
  C 532.72 508.33 527.43 510.79 522.61 513.30
  C 522.06 513.59 521.41 513.57 520.89 513.26
  C 508.92 506.17 496.80 505.76 484.52 512.03
  C 477.79 515.46 472.37 520.35 468.28 526.68
  C 461.68 536.88 459.07 551.98 461.17 564.37
  C 461.94 568.88 463.58 573.64 466.09 578.65
  C 473.94 594.23 486.58 604.83 504.03 610.46"
/>
<path stroke="#d10f17" vector-effect="non-scaling-stroke" d="
  M 504.03 610.46
  C 503.64 610.77 503.49 611.36 503.60 612.23
  C 503.66 612.76 503.61 612.77 503.44 612.26
  C 503.39 612.11 503.28 612.06 503.12 612.09
  C 502.74 612.19 502.44 612.49 502.37 612.86
  C 502.36 612.96 502.38 613.05 502.45 613.12
  C 502.58 613.27 502.62 613.45 502.57 613.65
  C 502.05 615.46 501.29 617.07 500.28 618.48
  C 500.17 618.64 500.16 618.81 500.25 618.98
  C 500.30 619.06 500.33 619.15 500.34 619.24
  C 500.39 619.61 500.24 619.86 499.89 619.98
  C 499.65 620.06 499.37 620.09 499.04 620.08"
/>
<path stroke="#812325" vector-effect="non-scaling-stroke" d="
  M 499.04 620.08
  L 481.46 617.55
  C 481.24 617.52 481.11 617.61 481.06 617.82
  C 481.03 617.99 481.08 618.12 481.21 618.23
  C 486.19 622.03 492.11 625.12 498.48 627.06
  C 500.85 627.78 503.18 628.48 505.48 629.16"
/>
<path stroke="#d10f17" vector-effect="non-scaling-stroke" d="
  M 505.48 629.16
  C 506.07 629.97 506.80 630.60 507.66 631.06
  C 508.55 631.54 509.42 632.06 510.25 632.63
  C 512.75 634.33 515.82 634.93 518.12 636.62
  C 519.82 637.86 519.94 639.35 518.47 641.09"
/>
<path stroke="#db888a" vector-effect="non-scaling-stroke" d="
  M 579.09 535.36
  C 582.85 547.32 582.57 559.01 579.07 570.92
  C 575.15 584.24 564.86 595.76 553.71 603.41
  C 547.89 607.40 540.74 610.18 532.26 611.73
  C 522.25 613.56 512.84 613.14 504.03 610.46"
/>
<path stroke="#662423" vector-effect="non-scaling-stroke" d="
  M 544.84 435.75
  C 549.28 444.24 555.18 453.23 559.23 460.50
  C 568.73 477.53 578.42 494.60 588.31 511.71
  C 592.27 518.54 595.17 525.04 597.01 531.20
  C 600.85 544.00 601.22 557.23 598.13 570.88
  C 596.80 576.78 595.19 581.75 593.30 585.79
  C 587.27 598.75 577.75 609.56 564.75 618.23
  C 560.21 621.26 554.93 624.06 548.91 626.65
  C 542.19 629.53 534.41 631.03 525.57 631.16
  C 518.49 631.26 512.11 631.17 505.48 629.16"
/>
<path stroke="#662423" vector-effect="non-scaling-stroke" d="
  M 499.04 620.08
  C 506.31 621.13 513.63 621.67 521.00 621.70
  C 525.57 621.72 529.50 621.38 532.80 620.68
  C 537.73 619.63 542.85 618.08 548.16 616.03
  C 553.42 614.00 557.99 611.21 561.87 607.64
  C 566.30 603.56 570.47 598.95 574.38 593.80
  C 577.95 589.11 580.78 583.96 582.89 578.37
  C 587.23 566.85 588.74 554.82 587.42 542.27
  C 587.20 540.24 586.49 537.15 585.30 533.02"
/>
<path stroke="#f5878c" vector-effect="non-scaling-stroke" d="
  M 521.91 545.31
  C 519.46 542.32 516.81 539.52 513.97 536.91
  C 509.78 533.06 503.67 531.85 498.40 533.95
  C 490.83 536.96 486.62 542.92 485.78 551.83
  C 484.90 561.19 489.76 568.65 496.71 574.34
  C 504.55 580.75 512.32 587.38 520.02 594.21
  C 520.49 594.62 521.17 594.67 521.69 594.33
  C 529.97 588.85 536.89 582.26 544.88 576.16
  C 552.60 570.26 556.91 563.61 556.77 553.30
  C 556.70 548.12 554.96 543.60 551.57 539.75
  C 547.81 535.47 542.21 532.19 536.53 533.21
  C 530.19 534.35 524.50 539.25 522.53 545.20
  C 522.40 545.61 522.19 545.65 521.91 545.31"
/>
</g>
<path fill="#163830" d="
  M 286.90 768.72
  L 287.90 748.47
  C 288.24 744.18 288.31 739.82 288.12 735.37
  C 288.02 733.04 288.05 730.79 288.20 728.63
  C 288.39 726.10 288.28 723.80 287.88 721.73
  C 287.82 721.43 287.95 721.27 288.26 721.25
  C 288.90 721.22 289.17 720.88 289.06 720.24
  C 287.65 711.99 287.94 703.30 288.09 693.38
  C 288.10 693.11 288.16 692.85 288.29 692.62
  C 288.63 691.98 288.50 691.46 287.90 691.06
  C 275.70 683.02 266.25 670.27 262.48 655.60
  C 261.02 649.91 260.92 643.74 262.18 637.08
  C 264.64 624.08 271.12 613.26 281.63 604.61
  C 282.77 603.68 285.52 601.67 289.89 598.59
  C 299.97 593.49 310.59 590.74 321.76 590.33
  C 326.30 590.17 331.12 590.13 336.23 590.21
  C 339.81 590.26 344.14 591.41 347.52 590.25
  C 352.38 588.58 355.57 587.83 357.08 588.02
  C 362.85 588.72 367.04 591.59 369.66 596.62
  C 371.33 599.82 371.46 603.43 372.02 606.93
  C 372.34 608.95 371.75 610.57 370.24 611.78
  C 367.84 613.73 365.38 616.05 362.54 617.26
  C 355.50 620.29 348.96 617.72 343.07 613.40
  C 341.96 612.59 340.64 612.17 339.13 612.14
  C 329.89 611.98 320.10 611.04 311.32 613.53
  C 302.89 615.92 295.84 620.54 290.17 627.39
  L 287.32 632.06
  C 287.15 632.34 287.05 632.64 287.02 632.97
  C 286.99 633.21 286.93 633.45 286.84 633.68
  C 285.93 635.92 285.22 638.22 284.71 640.57
  C 284.18 642.96 284.11 645.32 284.50 647.66
  C 285.47 653.52 287.80 658.88 291.48 663.74
  C 291.92 664.56 292.47 665.23 293.12 665.75
  C 293.40 665.98 293.67 665.97 293.93 665.72
  C 299.76 660.13 305.97 654.88 313.78 653.00
  C 320.51 651.38 327.44 650.91 334.59 651.58
  C 334.76 651.60 334.89 651.69 334.97 651.84
  L 335.12 652.11
  C 335.29 652.43 335.56 652.60 335.92 652.61
  C 337.35 652.65 338.71 652.70 340.02 652.76
  C 342.44 652.87 344.45 654.17 346.86 653.24
  C 352.53 651.03 358.23 649.48 363.98 652.97
  C 370.10 656.69 372.32 661.91 370.65 668.63
  C 369.92 671.54 367.86 673.77 366.94 676.68
  C 366.42 678.31 365.16 679.48 363.15 680.20
  C 356.24 682.68 349.44 680.31 344.02 675.77
  C 343.00 674.92 341.51 674.03 340.18 673.95
  C 334.20 673.58 326.05 672.77 320.12 674.97
  C 317.61 675.90 312.01 678.15 310.86 680.76
  C 310.42 681.75 310.19 682.71 310.17 683.65
  C 309.97 691.89 309.90 700.84 309.95 710.50
  C 309.98 715.12 310.70 720.06 312.12 725.33
  C 314.89 735.58 319.52 743.93 325.99 750.39
  C 334.73 759.10 344.69 764.38 355.87 766.25
  C 360.30 766.98 366.43 767.35 374.26 767.34
  C 461.55 767.23 549.39 767.19 637.76 767.24
  C 643.58 767.25 649.30 767.15 654.91 766.96
  C 662.89 766.69 670.36 764.67 677.32 760.90
  C 693.09 752.36 705.79 736.75 708.38 718.60
  C 709.43 711.17 709.15 703.29 709.16 696.32
  C 709.29 559.33 709.42 421.99 709.55 284.30
  C 709.56 275.86 709.12 269.54 708.24 265.35
  C 704.59 247.86 693.01 232.04 677.96 223.01
  C 672.03 219.45 665.66 216.23 658.86 214.84
  C 651.11 213.25 643.33 212.75 635.38 212.75
  C 546.71 212.77 457.89 212.75 368.92 212.70
  C 360.52 212.70 352.71 214.04 345.50 216.71
  C 340.99 218.38 336.95 220.17 333.38 222.06
  C 327.27 225.30 321.67 229.88 316.56 235.80
  C 313.31 239.57 310.28 244.89 307.47 251.75
  C 307.33 252.09 307.12 252.14 306.84 251.90
  C 304.99 250.33 302.81 249.41 300.28 249.14
  C 299.68 249.07 299.29 249.21 299.12 249.54
  C 298.97 249.29 298.75 249.16 298.48 249.17
  C 295.01 249.19 292.10 250.57 289.74 253.32
  C 288.71 254.53 288.31 255.97 287.32 257.14
  C 286.03 258.67 285.57 258.45 285.94 256.48
  C 286.66 252.78 287.08 249.06 288.39 245.48
  C 290.95 238.51 294.83 231.63 300.03 224.84
  C 308.88 213.29 320.11 204.66 333.72 198.97
  C 339.71 196.47 345.23 194.70 350.27 193.66
  C 357.03 192.27 365.58 191.57 375.91 191.58
  C 457.45 191.63 541.76 191.61 628.84 191.52
  C 634.60 191.51 640.36 191.75 646.11 191.93
  C 648.90 192.02 651.15 192.17 652.88 192.36
  C 672.28 194.53 689.14 202.40 703.45 215.97
  C 712.05 224.12 718.57 233.34 723.00 243.63
  C 726.03 250.64 728.27 257.82 729.74 265.15
  C 730.55 269.22 730.97 274.28 730.98 280.34
  C 731.29 439.14 731.31 580.19 731.04 703.50
  C 731.03 706.63 730.65 710.01 731.24 713.04
  C 731.53 714.54 731.11 716.21 731.14 717.78
  C 731.50 739.37 731.59 758.77 731.41 776.00
  C 731.37 779.81 730.92 783.84 729.68 787.50
  C 726.87 795.80 722.94 802.61 717.89 807.93
  C 714.78 811.20 710.84 814.67 706.05 818.34
  C 694.21 827.40 681.45 832.70 667.50 835.09
  C 662.73 835.90 657.22 836.30 650.98 836.29
  C 562.65 836.10 471.49 836.13 377.50 836.38
  C 368.33 836.41 362.08 836.33 358.75 836.14
  C 339.35 835.05 322.11 827.70 307.03 814.08
  C 298.60 806.46 290.17 796.39 287.78 785.76
  C 287.08 782.65 286.79 776.97 286.90 768.72
  Z
  M 719.14 751.23
  C 710.96 763.85 700.51 773.60 687.78 780.49
  C 681.33 783.98 674.35 786.46 666.86 787.92
  C 663.02 788.67 657.76 789.02 651.07 788.98
  C 640.60 788.91 630.16 789.00 619.74 789.25
  L 614.00 789.32
  L 609.82 789.35
  C 608.67 788.96 607.40 788.97 606.02 789.37
  C 594.90 789.30 583.77 789.02 572.66 789.01
  C 525.86 788.98 479.06 788.98 432.25 789.03
  C 429.52 789.03 426.77 789.02 424.00 789.01
  C 404.51 788.92 385.01 788.96 365.50 789.14
  C 354.03 789.25 343.36 787.19 333.49 782.97
  C 330.41 781.66 327.50 780.11 324.77 778.32
  C 320.57 775.58 316.58 772.61 312.81 769.42
  C 308.04 765.37 304.03 760.89 300.80 755.98
  C 300.35 755.29 299.72 754.94 298.91 754.91
  C 298.33 754.89 297.89 755.43 298.03 755.99
  C 299.20 760.82 300.57 765.38 302.14 769.68
  C 307.66 784.78 317.22 796.84 330.81 805.86
  C 336.27 809.49 342.18 811.43 348.55 811.69
  C 348.83 811.70 349.05 811.91 349.08 812.19
  C 349.13 812.62 349.35 812.86 349.75 812.93
  C 350.10 812.99 350.44 812.93 350.77 812.76
  C 352.34 811.93 353.47 812.10 354.14 813.29
  C 354.30 813.57 354.54 813.69 354.86 813.66
  C 357.06 813.43 359.34 813.49 361.71 813.82
  C 363.86 814.12 366.08 814.29 368.36 814.33
  C 394.71 814.79 420.14 814.43 446.23 814.67
  C 470.44 814.89 497.45 814.81 527.25 814.42
  C 530.49 814.37 533.74 814.00 537.00 814.00
  C 575.97 814.00 613.84 814.00 650.61 814.00
  C 654.58 814.00 658.44 813.84 662.21 813.51
  C 670.28 812.82 677.47 810.17 684.72 806.83
  C 697.51 800.92 706.68 791.32 712.23 778.05
  C 713.59 774.80 715.45 771.29 716.29 768.01
  C 717.60 762.93 719.26 758.02 721.28 753.28
  L 722.85 748.93
  C 723.08 748.30 722.86 747.99 722.19 748.01
  L 721.79 748.02
  C 721.13 748.03 720.54 748.41 720.24 749.00
  L 719.14 751.23
  Z"
/>
<path fill="#15d18d" d="
  M 291.48 663.74
  C 289.95 657.08 290.55 650.91 291.01 644.21
  C 291.16 642.11 291.05 639.65 290.68 636.83
  C 290.28 633.78 290.11 630.64 290.17 627.39
  C 295.84 620.54 302.89 615.92 311.32 613.53
  C 320.10 611.04 329.89 611.98 339.13 612.14
  C 340.64 612.17 341.96 612.59 343.07 613.40
  C 348.96 617.72 355.50 620.29 362.54 617.26
  C 365.38 616.05 367.84 613.73 370.24 611.78
  C 371.75 610.57 372.34 608.95 372.02 606.93
  C 371.46 603.43 371.33 599.82 369.66 596.62
  C 367.04 591.59 362.85 588.72 357.08 588.02
  C 355.57 587.83 352.38 588.58 347.52 590.25
  C 344.14 591.41 339.81 590.26 336.23 590.21
  C 331.12 590.13 326.30 590.17 321.76 590.33
  C 310.59 590.74 299.97 593.49 289.89 598.59
  C 289.68 594.28 289.82 590.66 290.31 587.75
  C 290.99 583.66 291.81 580.04 291.29 575.74
  C 290.83 571.94 290.10 567.68 290.93 563.58
  C 296.99 560.33 302.72 556.42 308.11 551.84
  C 310.32 549.96 312.10 548.62 313.44 547.83
  C 316.59 545.96 321.56 543.75 325.33 543.47
  C 332.64 542.94 341.14 542.86 346.82 548.32
  C 349.15 550.56 352.17 551.68 355.87 551.67
  C 359.91 551.66 363.92 549.99 367.90 546.64
  C 368.81 545.88 369.28 544.86 369.31 543.59
  C 369.32 543.21 369.42 542.86 369.62 542.53
  C 370.77 540.64 371.54 538.46 371.91 536.01
  C 371.95 535.74 371.93 535.47 371.84 535.22
  C 371.59 534.48 371.39 533.72 371.26 532.94
  C 370.68 529.46 369.18 526.89 366.77 525.22
  C 364.27 523.49 361.17 522.12 357.47 521.09
  C 354.38 520.23 350.59 521.99 347.80 523.17
  C 344.29 524.66 340.56 523.34 336.86 523.17
  C 330.93 522.91 325.40 522.97 320.27 523.35
  C 310.10 524.09 301.50 528.79 294.44 536.19
  C 294.00 536.65 293.49 536.92 292.92 537.01
  C 292.07 537.14 291.50 536.79 291.22 535.96
  C 290.78 533.39 290.70 531.15 290.98 529.25
  C 291.74 524.17 291.90 519.95 291.07 514.63
  C 290.49 510.89 290.42 506.73 290.85 502.16
  C 291.19 498.53 292.03 494.99 292.59 491.22
  C 297.38 485.87 303.51 481.92 310.97 479.37
  C 312.49 478.85 314.48 478.73 316.15 478.19
  C 317.78 477.66 319.05 477.36 319.98 477.27
  C 325.98 476.70 332.55 476.54 339.70 476.81
  C 341.68 476.89 343.07 477.19 343.88 477.71
  C 351.44 482.57 359.80 484.11 367.03 477.89
  C 368.05 477.01 368.76 475.86 369.15 474.44
  C 369.56 472.96 370.10 471.49 370.77 470.03
  C 372.61 465.99 372.27 462.04 369.76 458.18
  C 366.84 453.72 360.34 449.69 354.76 450.97
  C 349.38 452.20 345.90 456.36 339.98 455.54
  C 338.27 455.31 336.60 455.20 334.95 455.22
  C 328.35 455.30 321.37 455.66 314.02 456.31
  C 311.98 456.50 310.72 457.75 308.54 457.54
  C 308.17 457.50 307.82 457.56 307.49 457.71
  C 305.26 458.72 302.86 459.00 300.56 459.99
  C 298.08 461.06 295.55 462.15 292.98 463.27
  C 293.23 461.62 293.12 460.26 292.66 459.21
  C 292.96 458.54 293.39 458.10 293.94 457.89
  C 294.72 457.59 295.50 457.22 296.29 456.77
  C 296.56 456.61 296.60 456.41 296.39 456.18
  L 292.26 451.47
  C 290.96 445.37 292.04 439.74 292.66 433.75
  C 292.84 431.96 292.53 428.54 291.72 423.50
  C 291.49 422.05 291.68 419.48 292.30 415.80
  C 296.37 411.57 301.11 408.48 306.53 406.52
  C 310.78 404.99 315.86 404.25 321.77 404.32
  C 328.09 404.39 334.07 404.62 339.71 404.99
  C 341.22 405.09 342.57 405.58 343.74 406.45
  C 346.67 408.62 350.16 410.06 354.23 410.75
  C 357.50 411.31 360.84 410.67 364.26 408.82
  C 366.90 407.40 367.98 403.73 369.35 401.20
  C 371.64 396.97 371.82 392.88 369.88 388.93
  C 365.53 380.10 354.94 378.82 346.97 382.90
  C 345.67 383.56 344.34 384.18 342.98 384.77
  C 342.27 385.07 341.46 384.72 341.19 384.00
  C 341.06 383.63 340.82 383.37 340.48 383.20
  C 340.17 383.06 339.84 382.98 339.47 382.96
  C 332.86 382.69 325.45 382.67 317.25 382.89
  C 308.65 383.13 300.51 385.05 292.83 388.64
  C 292.91 382.65 293.94 378.08 295.00 372.74
  C 295.79 368.74 295.34 364.86 295.44 360.69
  C 296.44 359.68 297.21 359.02 297.74 358.70
  C 301.62 356.41 305.60 354.28 308.81 350.96
  C 312.32 347.34 316.75 344.51 322.12 342.48
  C 323.19 342.08 324.31 341.89 325.49 341.92
  C 329.04 342.01 332.49 342.00 335.85 341.90
  C 340.57 341.75 344.80 343.33 348.67 345.76
  C 353.55 348.83 361.93 346.25 366.76 344.26
  C 367.11 344.11 367.38 343.88 367.57 343.57
  C 371.28 337.59 373.52 330.52 368.62 324.52
  C 362.71 317.29 354.94 317.54 347.09 321.09
  C 345.49 321.81 343.66 321.95 341.60 321.50
  C 341.40 321.45 341.24 321.34 341.12 321.17
  L 340.93 320.88
  C 340.78 320.65 340.56 320.54 340.29 320.53
  C 328.78 320.37 321.01 320.56 316.99 321.11
  C 310.30 322.01 303.55 325.09 296.73 330.35
  C 296.84 326.10 297.21 322.07 297.86 318.27
  C 298.13 316.63 298.09 314.48 297.84 312.84
  C 296.71 305.41 296.37 300.01 296.82 296.62
  C 297.29 293.12 297.73 289.44 298.15 285.59
  C 299.78 284.19 301.32 283.17 302.77 282.54
  C 304.72 281.68 306.34 280.69 308.30 280.22
  C 317.62 277.99 327.75 277.45 338.68 278.62
  C 340.43 278.81 342.07 279.40 343.59 280.41
  C 350.63 285.08 357.91 286.75 365.43 281.71
  C 367.98 280.00 369.42 277.84 369.75 275.22
  C 370.16 271.91 370.63 268.49 371.16 264.95
  C 371.23 264.51 371.08 264.15 370.73 263.88
  C 370.38 263.61 370.23 263.26 370.27 262.82
  C 370.31 262.39 370.14 262.08 369.77 261.88
  C 369.41 261.69 369.23 261.40 369.22 261.01
  C 369.21 260.65 369.08 260.34 368.83 260.08
  C 368.13 259.35 367.41 258.63 366.67 257.91
  C 365.97 257.22 365.22 256.73 364.41 256.44
  C 363.40 256.07 362.50 255.58 361.72 254.95
  C 361.39 254.70 361.03 254.63 360.64 254.74
  C 360.15 254.89 359.72 254.80 359.36 254.46
  C 359.14 254.25 358.88 254.11 358.59 254.04
  C 356.43 253.51 354.39 253.67 352.47 254.54
  C 352.17 254.68 351.85 254.75 351.52 254.74
  L 351.00 254.74
  C 350.59 254.73 350.19 254.93 349.94 255.26
  C 349.65 255.63 349.26 255.79 348.79 255.72
  C 348.39 255.66 348.11 255.82 347.95 256.19
  C 347.78 256.60 347.48 256.76 347.04 256.69
  C 346.70 256.63 346.42 256.73 346.19 257.00
  C 345.27 258.05 344.23 258.13 343.08 257.26
  C 342.79 257.04 342.47 256.93 342.11 256.94
  C 340.54 256.96 339.50 256.29 337.92 256.25
  C 330.73 256.08 322.95 256.39 314.58 257.20
  C 311.17 257.52 308.32 258.84 305.09 259.58
  C 302.25 260.23 299.37 260.87 296.44 261.49
  C 296.61 257.11 297.50 253.13 299.12 249.54
  C 299.29 249.21 299.68 249.07 300.28 249.14
  C 302.81 249.41 304.99 250.33 306.84 251.90
  C 307.12 252.14 307.33 252.09 307.47 251.75
  C 310.28 244.89 313.31 239.57 316.56 235.80
  C 321.67 229.88 327.27 225.30 333.38 222.06
  C 336.95 220.17 340.99 218.38 345.50 216.71
  C 352.71 214.04 360.52 212.70 368.92 212.70
  C 457.89 212.75 546.71 212.77 635.38 212.75
  C 643.33 212.75 651.11 213.25 658.86 214.84
  C 665.66 216.23 672.03 219.45 677.96 223.01
  C 693.01 232.04 704.59 247.86 708.24 265.35
  C 709.12 269.54 709.56 275.86 709.55 284.30
  C 709.42 421.99 709.29 559.33 709.16 696.32
  C 709.15 703.29 709.43 711.17 708.38 718.60
  C 705.79 736.75 693.09 752.36 677.32 760.90
  C 670.36 764.67 662.89 766.69 654.91 766.96
  C 649.30 767.15 643.58 767.25 637.76 767.24
  C 549.39 767.19 461.55 767.23 374.26 767.34
  C 366.43 767.35 360.30 766.98 355.87 766.25
  C 344.69 764.38 334.73 759.10 325.99 750.39
  C 319.52 743.93 314.89 735.58 312.12 725.33
  C 310.70 720.06 309.98 715.12 309.95 710.50
  C 309.90 700.84 309.97 691.89 310.17 683.65
  C 310.19 682.71 310.42 681.75 310.86 680.76
  C 312.01 678.15 317.61 675.90 320.12 674.97
  C 326.05 672.77 334.20 673.58 340.18 673.95
  C 341.51 674.03 343.00 674.92 344.02 675.77
  C 349.44 680.31 356.24 682.68 363.15 680.20
  C 365.16 679.48 366.42 678.31 366.94 676.68
  C 367.86 673.77 369.92 671.54 370.65 668.63
  C 372.32 661.91 370.10 656.69 363.98 652.97
  C 358.23 649.48 352.53 651.03 346.86 653.24
  C 344.45 654.17 342.44 652.87 340.02 652.76
  C 338.71 652.70 337.35 652.65 335.92 652.61
  C 335.56 652.60 335.29 652.43 335.12 652.11
  L 334.97 651.84
  C 334.89 651.69 334.76 651.60 334.59 651.58
  C 327.44 650.91 320.51 651.38 313.78 653.00
  C 305.97 654.88 299.76 660.13 293.93 665.72
  C 293.67 665.97 293.40 665.98 293.12 665.75
  C 292.47 665.23 291.92 664.56 291.48 663.74
  Z
  M 626.8067 314.8148
  C 642.59 318.00 658.06 307.34 661.3547 291.0037
  C 664.65 274.67 654.52 258.85 638.7333 255.6652
  C 622.95 252.48 607.48 263.14 604.1853 279.4763
  C 600.89 295.81 611.02 311.63 626.8067 314.8148
  Z
  M 543.21 673.66
  C 563.82 670.48 585.42 661.62 601.64 647.88
  C 618.49 633.60 630.76 616.20 638.47 595.67
  C 648.24 569.66 649.61 544.13 642.58 519.06
  C 639.80 509.13 635.52 499.58 630.77 490.70
  C 623.12 476.39 614.06 460.06 603.59 441.71
  C 600.26 435.86 597.00 430.06 593.83 424.32
  C 577.49 394.71 561.29 365.66 545.23 337.15
  C 537.14 322.79 529.81 308.68 523.39 293.20
  C 523.04 292.37 522.77 291.50 522.56 290.60
  C 522.12 288.67 521.56 288.63 520.88 290.49
  C 516.97 301.15 512.15 311.81 506.44 322.47
  C 496.64 340.75 486.51 359.11 476.04 377.56
  C 463.08 400.39 450.62 422.46 438.67 443.77
  C 435.47 449.46 432.17 455.25 428.77 461.13
  C 423.18 470.77 417.78 480.53 412.56 490.41
  C 408.99 497.16 406.18 503.31 404.13 508.86
  C 393.45 537.79 393.72 566.97 404.93 596.39
  C 415.83 624.99 437.88 650.35 466.36 663.23
  C 480.24 669.51 495.13 674.06 510.25 674.95
  C 522.12 675.64 533.10 675.21 543.21 673.66
  Z"
/>
<path fill="#163830" d="
  M 298.15 285.59
  L 290.70 291.35
  C 290.44 291.55 290.27 291.84 290.23 292.17
  C 290.13 292.93 289.75 293.51 289.10 293.90
  C 288.82 294.08 288.59 294.32 288.43 294.61
  C 287.64 296.06 286.92 297.58 286.28 299.19
  C 285.96 300.00 285.56 300.77 285.09 301.50
  C 284.59 302.26 284.36 303.09 284.39 304.00
  C 284.42 304.68 284.39 305.38 284.30 306.09
  C 283.82 310.07 283.80 313.56 284.23 316.57
  C 284.80 320.60 286.44 324.98 289.15 329.71
  C 290.05 331.28 291.15 332.67 292.46 333.90
  C 292.74 334.16 293.17 334.15 293.43 333.87
  L 296.73 330.35
  C 303.55 325.09 310.30 322.01 316.99 321.11
  C 321.01 320.56 328.78 320.37 340.29 320.53
  C 340.56 320.54 340.78 320.65 340.93 320.88
  L 341.12 321.17
  C 341.24 321.34 341.40 321.45 341.60 321.50
  C 343.66 321.95 345.49 321.81 347.09 321.09
  C 354.94 317.54 362.71 317.29 368.62 324.52
  C 373.52 330.52 371.28 337.59 367.57 343.57
  C 367.38 343.88 367.11 344.11 366.76 344.26
  C 361.93 346.25 353.55 348.83 348.67 345.76
  C 344.80 343.33 340.57 341.75 335.85 341.90
  C 332.49 342.00 329.04 342.01 325.49 341.92
  C 324.31 341.89 323.19 342.08 322.12 342.48
  C 316.75 344.51 312.32 347.34 308.81 350.96
  C 305.60 354.28 301.62 356.41 297.74 358.70
  C 297.21 359.02 296.44 359.68 295.44 360.69
  C 294.07 361.76 292.76 362.43 291.51 362.69
  C 291.18 362.76 290.88 362.69 290.62 362.48
  C 289.13 361.27 287.80 360.27 286.62 359.48
  C 285.43 358.67 284.27 357.79 283.12 356.83
  C 272.81 348.13 265.96 337.23 262.56 324.13
  C 261.11 318.56 260.73 312.92 261.41 307.21
  C 263.05 293.37 269.15 281.72 279.70 272.25
  C 280.70 271.35 281.72 270.46 282.77 269.58
  C 283.80 268.71 284.89 267.94 286.03 267.25
  C 289.50 265.17 292.97 263.25 296.44 261.49
  C 299.37 260.87 302.25 260.23 305.09 259.58
  C 308.32 258.84 311.17 257.52 314.58 257.20
  C 322.95 256.39 330.73 256.08 337.92 256.25
  C 339.50 256.29 340.54 256.96 342.11 256.94
  C 342.47 256.93 342.79 257.04 343.08 257.26
  C 344.23 258.13 345.27 258.05 346.19 257.00
  C 346.42 256.73 346.70 256.63 347.04 256.69
  C 347.48 256.76 347.78 256.60 347.95 256.19
  C 348.11 255.82 348.39 255.66 348.79 255.72
  C 349.26 255.79 349.65 255.63 349.94 255.26
  C 350.19 254.93 350.59 254.73 351.00 254.74
  L 351.52 254.74
  C 351.85 254.75 352.17 254.68 352.47 254.54
  C 354.39 253.67 356.43 253.51 358.59 254.04
  C 358.88 254.11 359.14 254.25 359.36 254.46
  C 359.72 254.80 360.15 254.89 360.64 254.74
  C 361.03 254.63 361.39 254.70 361.72 254.95
  C 362.50 255.58 363.40 256.07 364.41 256.44
  C 365.22 256.73 365.97 257.22 366.67 257.91
  C 367.41 258.63 368.13 259.35 368.83 260.08
  C 369.08 260.34 369.21 260.65 369.22 261.01
  C 369.23 261.40 369.41 261.69 369.77 261.88
  C 370.14 262.08 370.31 262.39 370.27 262.82
  C 370.23 263.26 370.38 263.61 370.73 263.88
  C 371.08 264.15 371.23 264.51 371.16 264.95
  C 370.63 268.49 370.16 271.91 369.75 275.22
  C 369.42 277.84 367.98 280.00 365.43 281.71
  C 357.91 286.75 350.63 285.08 343.59 280.41
  C 342.07 279.40 340.43 278.81 338.68 278.62
  C 327.75 277.45 317.62 277.99 308.30 280.22
  C 306.34 280.69 304.72 281.68 302.77 282.54
  C 301.32 283.17 299.78 284.19 298.15 285.59
  Z"
/>
<path fill="#163830" d="
  M 626.8067 314.8148
  C 611.02 311.63 600.89 295.81 604.1853 279.4763
  C 607.48 263.14 622.95 252.48 638.7333 255.6652
  C 654.52 258.85 664.65 274.67 661.3547 291.0037
  C 658.06 307.34 642.59 318.00 626.8067 314.8148
  Z
  M 647.20 285.28
  C 647.20 277.35 640.77 270.92 632.84 270.92
  C 624.91 270.92 618.48 277.35 618.48 285.28
  C 618.48 293.21 624.91 299.64 632.84 299.64
  C 640.77 299.64 647.20 293.21 647.20 285.28
  Z"
/>
<circle fill="#faffd5" cx="632.84" cy="285.28" r="14.36"/>
<path fill="#163830" d="
  M 543.21 673.66
  C 533.10 675.21 522.12 675.64 510.25 674.95
  C 495.13 674.06 480.24 669.51 466.36 663.23
  C 437.88 650.35 415.83 624.99 404.93 596.39
  C 393.72 566.97 393.45 537.79 404.13 508.86
  C 406.18 503.31 408.99 497.16 412.56 490.41
  C 417.78 480.53 423.18 470.77 428.77 461.13
  C 432.17 455.25 435.47 449.46 438.67 443.77
  C 450.62 422.46 463.08 400.39 476.04 377.56
  C 486.51 359.11 496.64 340.75 506.44 322.47
  C 512.15 311.81 516.97 301.15 520.88 290.49
  C 521.56 288.63 522.12 288.67 522.56 290.60
  C 522.77 291.50 523.04 292.37 523.39 293.20
  C 529.81 308.68 537.14 322.79 545.23 337.15
  C 561.29 365.66 577.49 394.71 593.83 424.32
  C 597.00 430.06 600.26 435.86 603.59 441.71
  C 614.06 460.06 623.12 476.39 630.77 490.70
  C 635.52 499.58 639.80 509.13 642.58 519.06
  C 649.61 544.13 648.24 569.66 638.47 595.67
  C 630.76 616.20 618.49 633.60 601.64 647.88
  C 585.42 661.62 563.82 670.48 543.21 673.66
  Z
  M 518.47 641.09
  C 526.68 641.40 532.15 641.34 534.89 640.93
  C 544.69 639.44 553.81 636.57 562.25 632.33
  C 568.40 629.24 575.04 624.66 582.17 618.59
  C 587.06 614.44 591.46 609.37 595.39 603.40
  C 604.02 590.29 609.08 576.39 610.58 561.72
  C 612.45 543.47 609.09 526.40 600.50 510.53
  C 588.61 488.57 573.07 460.40 553.86 426.03
  L 522.32 370.12
  C 521.81 369.22 521.20 369.15 520.49 369.91
  C 519.45 371.02 518.59 372.19 517.90 373.40
  C 514.25 379.85 510.44 386.56 506.49 393.54
  C 505.86 394.64 505.56 395.95 504.99 397.00
  C 498.78 408.48 492.19 419.55 486.10 430.74
  C 480.89 440.30 475.62 449.57 470.30 458.54
  C 469.25 460.32 468.59 462.29 467.52 464.11
  C 463.15 471.54 458.74 479.29 454.27 487.37
  C 453.39 488.96 452.36 490.60 451.18 492.27
  C 450.00 493.95 448.97 495.68 448.09 497.46
  C 445.81 502.08 443.46 506.75 441.05 511.47
  C 437.05 519.31 433.83 527.55 432.55 536.10
  C 431.03 546.19 431.02 558.10 432.53 571.83
  C 432.68 573.20 433.01 574.49 433.51 575.68
  C 435.87 581.33 438.34 587.08 440.93 592.95
  C 445.76 603.89 454.42 612.50 463.38 620.63
  C 468.11 624.92 473.48 628.59 479.50 631.65
  C 491.61 637.80 504.60 640.95 518.47 641.09
  Z"
/>
<path fill="#eb0e19" d="
  M 553.86 426.03
  C 554.21 427.78 554.76 429.47 555.53 431.10
  C 555.65 431.36 555.57 431.46 555.30 431.40
  C 555.23 431.38 555.17 431.39 555.11 431.43
  C 554.94 431.54 554.82 431.68 554.73 431.86
  C 553.93 433.63 552.77 435.13 551.26 436.36
  C 550.47 437.00 549.28 437.14 548.53 437.96
  C 547.84 438.71 546.59 438.37 546.39 437.37
  C 546.26 436.78 545.75 436.24 544.84 435.75
  C 542.63 432.01 540.56 428.17 538.65 424.22
  C 535.72 418.20 532.71 413.61 529.08 408.58
  C 528.87 408.30 528.44 408.33 528.28 408.64
  C 528.06 409.07 528.03 409.51 528.20 409.97
  C 530.06 415.01 533.08 419.75 535.39 424.83
  C 538.77 432.28 542.30 440.09 545.99 448.24
  C 549.00 454.88 552.06 461.84 555.17 469.11
  C 558.21 476.21 562.76 485.55 568.81 497.12
  C 572.90 504.93 577.53 514.56 582.70 526.01
  C 583.74 528.31 584.61 530.65 585.30 533.02
  L 585.33 536.66
  C 585.33 536.97 585.18 537.09 584.89 537.00
  L 579.09 535.36
  C 576.24 528.33 571.90 522.26 566.07 517.17
  C 558.10 510.20 548.77 507.12 538.06 507.93
  C 532.72 508.33 527.43 510.79 522.61 513.30
  C 522.06 513.59 521.41 513.57 520.89 513.26
  C 508.92 506.17 496.80 505.76 484.52 512.03
  C 477.79 515.46 472.37 520.35 468.28 526.68
  C 461.68 536.88 459.07 551.98 461.17 564.37
  C 461.94 568.88 463.58 573.64 466.09 578.65
  C 473.94 594.23 486.58 604.83 504.03 610.46
  C 503.64 610.77 503.49 611.36 503.60 612.23
  C 503.66 612.76 503.61 612.77 503.44 612.26
  C 503.39 612.11 503.28 612.06 503.12 612.09
  C 502.74 612.19 502.44 612.49 502.37 612.86
  C 502.36 612.96 502.38 613.05 502.45 613.12
  C 502.58 613.27 502.62 613.45 502.57 613.65
  C 502.05 615.46 501.29 617.07 500.28 618.48
  C 500.17 618.64 500.16 618.81 500.25 618.98
  C 500.30 619.06 500.33 619.15 500.34 619.24
  C 500.39 619.61 500.24 619.86 499.89 619.98
  C 499.65 620.06 499.37 620.09 499.04 620.08
  L 481.46 617.55
  C 481.24 617.52 481.11 617.61 481.06 617.82
  C 481.03 617.99 481.08 618.12 481.21 618.23
  C 486.19 622.03 492.11 625.12 498.48 627.06
  C 500.85 627.78 503.18 628.48 505.48 629.16
  C 506.07 629.97 506.80 630.60 507.66 631.06
  C 508.55 631.54 509.42 632.06 510.25 632.63
  C 512.75 634.33 515.82 634.93 518.12 636.62
  C 519.82 637.86 519.94 639.35 518.47 641.09
  C 504.60 640.95 491.61 637.80 479.50 631.65
  C 473.48 628.59 468.11 624.92 463.38 620.63
  C 454.42 612.50 445.76 603.89 440.93 592.95
  C 438.34 587.08 435.87 581.33 433.51 575.68
  C 433.01 574.49 432.68 573.20 432.53 571.83
  C 431.02 558.10 431.03 546.19 432.55 536.10
  C 433.83 527.55 437.05 519.31 441.05 511.47
  C 443.46 506.75 445.81 502.08 448.09 497.46
  C 448.97 495.68 450.00 493.95 451.18 492.27
  C 452.36 490.60 453.39 488.96 454.27 487.37
  C 458.74 479.29 463.15 471.54 467.52 464.11
  C 468.59 462.29 469.25 460.32 470.30 458.54
  C 475.62 449.57 480.89 440.30 486.10 430.74
  C 492.19 419.55 498.78 408.48 504.99 397.00
  C 505.56 395.95 505.86 394.64 506.49 393.54
  C 510.44 386.56 514.25 379.85 517.90 373.40
  C 518.59 372.19 519.45 371.02 520.49 369.91
  C 521.20 369.15 521.81 369.22 522.32 370.12
  L 553.86 426.03
  Z"
/>
<path fill="#163830" d="
  M 292.30 415.80
  C 288.67 419.93 286.57 423.50 286.02 426.50
  C 285.85 427.43 285.68 428.19 285.49 428.79
  C 284.60 431.66 284.95 435.42 285.02 438.38
  C 285.03 438.57 285.10 438.74 285.24 438.87
  C 285.33 438.96 285.41 439.05 285.49 439.14
  C 285.66 439.34 285.75 439.57 285.76 439.84
  C 285.79 440.51 286.04 441.32 286.49 442.26
  C 288.28 445.98 290.20 449.05 292.26 451.47
  L 296.39 456.18
  C 296.60 456.41 296.56 456.61 296.29 456.77
  C 295.50 457.22 294.72 457.59 293.94 457.89
  C 293.39 458.10 292.96 458.54 292.66 459.21
  C 291.92 459.19 291.17 459.40 290.40 459.85
  C 286.69 462.02 283.05 464.31 279.50 466.72
  C 278.93 467.11 278.39 467.06 277.90 466.57
  C 271.03 459.85 266.23 451.90 263.48 442.73
  C 261.99 437.74 261.62 432.73 262.39 427.72
  C 262.49 427.09 262.64 426.49 262.84 425.93
  C 263.19 424.94 262.83 424.06 263.29 423.02
  C 264.34 420.65 264.75 418.09 265.83 415.68
  C 271.40 403.22 280.40 394.21 292.83 388.64
  C 300.51 385.05 308.65 383.13 317.25 382.89
  C 325.45 382.67 332.86 382.69 339.47 382.96
  C 339.84 382.98 340.17 383.06 340.48 383.20
  C 340.82 383.37 341.06 383.63 341.19 384.00
  C 341.46 384.72 342.27 385.07 342.98 384.77
  C 344.34 384.18 345.67 383.56 346.97 382.90
  C 354.94 378.82 365.53 380.10 369.88 388.93
  C 371.82 392.88 371.64 396.97 369.35 401.20
  C 367.98 403.73 366.90 407.40 364.26 408.82
  C 360.84 410.67 357.50 411.31 354.23 410.75
  C 350.16 410.06 346.67 408.62 343.74 406.45
  C 342.57 405.58 341.22 405.09 339.71 404.99
  C 334.07 404.62 328.09 404.39 321.77 404.32
  C 315.86 404.25 310.78 404.99 306.53 406.52
  C 301.11 408.48 296.37 411.57 292.30 415.80
  Z"
/>
<path fill="#163830" d="
  M 544.84 435.75
  C 549.28 444.24 555.18 453.23 559.23 460.50
  C 568.73 477.53 578.42 494.60 588.31 511.71
  C 592.27 518.54 595.17 525.04 597.01 531.20
  C 600.85 544.00 601.22 557.23 598.13 570.88
  C 596.80 576.78 595.19 581.75 593.30 585.79
  C 587.27 598.75 577.75 609.56 564.75 618.23
  C 560.21 621.26 554.93 624.06 548.91 626.65
  C 542.19 629.53 534.41 631.03 525.57 631.16
  C 518.49 631.26 512.11 631.17 505.48 629.16
  C 503.18 628.48 500.85 627.78 498.48 627.06
  C 492.11 625.12 486.19 622.03 481.21 618.23
  C 481.08 618.12 481.03 617.99 481.06 617.82
  C 481.11 617.61 481.24 617.52 481.46 617.55
  L 499.04 620.08
  C 506.31 621.13 513.63 621.67 521.00 621.70
  C 525.57 621.72 529.50 621.38 532.80 620.68
  C 537.73 619.63 542.85 618.08 548.16 616.03
  C 553.42 614.00 557.99 611.21 561.87 607.64
  C 566.30 603.56 570.47 598.95 574.38 593.80
  C 577.95 589.11 580.78 583.96 582.89 578.37
  C 587.23 566.85 588.74 554.82 587.42 542.27
  C 587.20 540.24 586.49 537.15 585.30 533.02
  C 584.61 530.65 583.74 528.31 582.70 526.01
  C 577.53 514.56 572.90 504.93 568.81 497.12
  C 562.76 485.55 558.21 476.21 555.17 469.11
  C 552.06 461.84 549.00 454.88 545.99 448.24
  C 542.30 440.09 538.77 432.28 535.39 424.83
  C 533.08 419.75 530.06 415.01 528.20 409.97
  C 528.03 409.51 528.06 409.07 528.28 408.64
  C 528.44 408.33 528.87 408.30 529.08 408.58
  C 532.71 413.61 535.72 418.20 538.65 424.22
  C 540.56 428.17 542.63 432.01 544.84 435.75
  Z"
/>
<path fill="#b61015" d="
  M 553.86 426.03
  C 573.07 460.40 588.61 488.57 600.50 510.53
  C 609.09 526.40 612.45 543.47 610.58 561.72
  C 609.08 576.39 604.02 590.29 595.39 603.40
  C 591.46 609.37 587.06 614.44 582.17 618.59
  C 575.04 624.66 568.40 629.24 562.25 632.33
  C 553.81 636.57 544.69 639.44 534.89 640.93
  C 532.15 641.34 526.68 641.40 518.47 641.09
  C 519.94 639.35 519.82 637.86 518.12 636.62
  C 515.82 634.93 512.75 634.33 510.25 632.63
  C 509.42 632.06 508.55 631.54 507.66 631.06
  C 506.80 630.60 506.07 629.97 505.48 629.16
  C 512.11 631.17 518.49 631.26 525.57 631.16
  C 534.41 631.03 542.19 629.53 548.91 626.65
  C 554.93 624.06 560.21 621.26 564.75 618.23
  C 577.75 609.56 587.27 598.75 593.30 585.79
  C 595.19 581.75 596.80 576.78 598.13 570.88
  C 601.22 557.23 600.85 544.00 597.01 531.20
  C 595.17 525.04 592.27 518.54 588.31 511.71
  C 578.42 494.60 568.73 477.53 559.23 460.50
  C 555.18 453.23 549.28 444.24 544.84 435.75
  C 545.75 436.24 546.26 436.78 546.39 437.37
  C 546.59 438.37 547.84 438.71 548.53 437.96
  C 549.28 437.14 550.47 437.00 551.26 436.36
  C 552.77 435.13 553.93 433.63 554.73 431.86
  C 554.82 431.68 554.94 431.54 555.11 431.43
  C 555.17 431.39 555.23 431.38 555.30 431.40
  C 555.57 431.46 555.65 431.36 555.53 431.10
  C 554.76 429.47 554.21 427.78 553.86 426.03
  Z"
/>
<path fill="#163830" d="
  M 292.59 491.22
  C 289.84 494.55 287.63 498.81 285.95 503.99
  C 283.60 511.23 283.40 517.97 285.34 524.22
  C 286.77 528.80 288.73 532.71 291.22 535.96
  C 291.50 536.79 292.07 537.14 292.92 537.01
  C 293.49 536.92 294.00 536.65 294.44 536.19
  C 301.50 528.79 310.10 524.09 320.27 523.35
  C 325.40 522.97 330.93 522.91 336.86 523.17
  C 340.56 523.34 344.29 524.66 347.80 523.17
  C 350.59 521.99 354.38 520.23 357.47 521.09
  C 361.17 522.12 364.27 523.49 366.77 525.22
  C 369.18 526.89 370.68 529.46 371.26 532.94
  C 371.39 533.72 371.59 534.48 371.84 535.22
  C 371.93 535.47 371.95 535.74 371.91 536.01
  C 371.54 538.46 370.77 540.64 369.62 542.53
  C 369.42 542.86 369.32 543.21 369.31 543.59
  C 369.28 544.86 368.81 545.88 367.90 546.64
  C 363.92 549.99 359.91 551.66 355.87 551.67
  C 352.17 551.68 349.15 550.56 346.82 548.32
  C 341.14 542.86 332.64 542.94 325.33 543.47
  C 321.56 543.75 316.59 545.96 313.44 547.83
  C 312.10 548.62 310.32 549.96 308.11 551.84
  C 302.72 556.42 296.99 560.33 290.93 563.58
  C 289.85 563.87 288.87 564.02 287.99 564.03
  C 287.09 564.05 286.31 563.79 285.64 563.25
  C 279.32 558.06 274.33 552.72 270.66 547.25
  C 262.07 534.40 259.14 520.42 261.88 505.30
  C 263.06 498.79 265.36 492.62 268.78 486.79
  C 272.56 480.34 277.12 474.97 282.46 470.70
  C 283.93 469.53 287.43 467.06 292.98 463.27
  C 295.55 462.15 298.08 461.06 300.56 459.99
  C 302.86 459.00 305.26 458.72 307.49 457.71
  C 307.82 457.56 308.17 457.50 308.54 457.54
  C 310.72 457.75 311.98 456.50 314.02 456.31
  C 321.37 455.66 328.35 455.30 334.95 455.22
  C 336.60 455.20 338.27 455.31 339.98 455.54
  C 345.90 456.36 349.38 452.20 354.76 450.97
  C 360.34 449.69 366.84 453.72 369.76 458.18
  C 372.27 462.04 372.61 465.99 370.77 470.03
  C 370.10 471.49 369.56 472.96 369.15 474.44
  C 368.76 475.86 368.05 477.01 367.03 477.89
  C 359.80 484.11 351.44 482.57 343.88 477.71
  C 343.07 477.19 341.68 476.89 339.70 476.81
  C 332.55 476.54 325.98 476.70 319.98 477.27
  C 319.05 477.36 317.78 477.66 316.15 478.19
  C 314.48 478.73 312.49 478.85 310.97 479.37
  C 303.51 481.92 297.38 485.87 292.59 491.22
  Z"
/>
<path fill="#ffffff" d="
  M 579.09 535.36
  C 582.85 547.32 582.57 559.01 579.07 570.92
  C 575.15 584.24 564.86 595.76 553.71 603.41
  C 547.89 607.40 540.74 610.18 532.26 611.73
  C 522.25 613.56 512.84 613.14 504.03 610.46
  C 486.58 604.83 473.94 594.23 466.09 578.65
  C 463.58 573.64 461.94 568.88 461.17 564.37
  C 459.07 551.98 461.68 536.88 468.28 526.68
  C 472.37 520.35 477.79 515.46 484.52 512.03
  C 496.80 505.76 508.92 506.17 520.89 513.26
  C 521.41 513.57 522.06 513.59 522.61 513.30
  C 527.43 510.79 532.72 508.33 538.06 507.93
  C 548.77 507.12 558.10 510.20 566.07 517.17
  C 571.90 522.26 576.24 528.33 579.09 535.36
  Z
  M 521.91 545.31
  C 519.46 542.32 516.81 539.52 513.97 536.91
  C 509.78 533.06 503.67 531.85 498.40 533.95
  C 490.83 536.96 486.62 542.92 485.78 551.83
  C 484.90 561.19 489.76 568.65 496.71 574.34
  C 504.55 580.75 512.32 587.38 520.02 594.21
  C 520.49 594.62 521.17 594.67 521.69 594.33
  C 529.97 588.85 536.89 582.26 544.88 576.16
  C 552.60 570.26 556.91 563.61 556.77 553.30
  C 556.70 548.12 554.96 543.60 551.57 539.75
  C 547.81 535.47 542.21 532.19 536.53 533.21
  C 530.19 534.35 524.50 539.25 522.53 545.20
  C 522.40 545.61 522.19 545.65 521.91 545.31
  Z"
/>
<path fill="#eb0e19" d="
  M 522.53 545.20
  C 524.50 539.25 530.19 534.35 536.53 533.21
  C 542.21 532.19 547.81 535.47 551.57 539.75
  C 554.96 543.60 556.70 548.12 556.77 553.30
  C 556.91 563.61 552.60 570.26 544.88 576.16
  C 536.89 582.26 529.97 588.85 521.69 594.33
  C 521.17 594.67 520.49 594.62 520.02 594.21
  C 512.32 587.38 504.55 580.75 496.71 574.34
  C 489.76 568.65 484.90 561.19 485.78 551.83
  C 486.62 542.92 490.83 536.96 498.40 533.95
  C 503.67 531.85 509.78 533.06 513.97 536.91
  C 516.81 539.52 519.46 542.32 521.91 545.31
  C 522.19 545.65 522.40 545.61 522.53 545.20
  Z"
/>
<path fill="#b61015" d="
  M 585.30 533.02
  C 586.49 537.15 587.20 540.24 587.42 542.27
  C 588.74 554.82 587.23 566.85 582.89 578.37
  C 580.78 583.96 577.95 589.11 574.38 593.80
  C 570.47 598.95 566.30 603.56 561.87 607.64
  C 557.99 611.21 553.42 614.00 548.16 616.03
  C 542.85 618.08 537.73 619.63 532.80 620.68
  C 529.50 621.38 525.57 621.72 521.00 621.70
  C 513.63 621.67 506.31 621.13 499.04 620.08
  C 499.37 620.09 499.65 620.06 499.89 619.98
  C 500.24 619.86 500.39 619.61 500.34 619.24
  C 500.33 619.15 500.30 619.06 500.25 618.98
  C 500.16 618.81 500.17 618.64 500.28 618.48
  C 501.29 617.07 502.05 615.46 502.57 613.65
  C 502.62 613.45 502.58 613.27 502.45 613.12
  C 502.38 613.05 502.36 612.96 502.37 612.86
  C 502.44 612.49 502.74 612.19 503.12 612.09
  C 503.28 612.06 503.39 612.11 503.44 612.26
  C 503.61 612.77 503.66 612.76 503.60 612.23
  C 503.49 611.36 503.64 610.77 504.03 610.46
  C 512.84 613.14 522.25 613.56 532.26 611.73
  C 540.74 610.18 547.89 607.40 553.71 603.41
  C 564.86 595.76 575.15 584.24 579.07 570.92
  C 582.57 559.01 582.85 547.32 579.09 535.36
  L 584.89 537.00
  C 585.18 537.09 585.33 536.97 585.33 536.66
  L 585.30 533.02
  Z"
/>
<path fill="#faffd5" d="
  M 287.90 748.47
  L 286.90 768.72
  C 286.52 766.84 286.11 764.98 285.66 763.15
  C 284.41 758.02 285.16 753.13 287.90 748.47
  Z"
/>
<path fill="#faffd5" d="
  M 719.14 751.23
  C 719.86 751.05 720.57 751.73 721.28 753.28
  C 719.26 758.02 717.60 762.93 716.29 768.01
  C 715.45 771.29 713.59 774.80 712.23 778.05
  C 706.68 791.32 697.51 800.92 684.72 806.83
  C 677.47 810.17 670.28 812.82 662.21 813.51
  C 658.44 813.84 654.58 814.00 650.61 814.00
  C 613.84 814.00 575.97 814.00 537.00 814.00
  C 533.74 814.00 530.49 814.37 527.25 814.42
  C 497.45 814.81 470.44 814.89 446.23 814.67
  C 420.14 814.43 394.71 814.79 368.36 814.33
  C 366.08 814.29 363.86 814.12 361.71 813.82
  C 359.34 813.49 357.06 813.43 354.86 813.66
  C 354.54 813.69 354.30 813.57 354.14 813.29
  C 353.47 812.10 352.34 811.93 350.77 812.76
  C 350.44 812.93 350.10 812.99 349.75 812.93
  C 349.35 812.86 349.13 812.62 349.08 812.19
  C 349.05 811.91 348.83 811.70 348.55 811.69
  C 342.18 811.43 336.27 809.49 330.81 805.86
  C 317.22 796.84 307.66 784.78 302.14 769.68
  C 300.57 765.38 299.20 760.82 298.03 755.99
  C 297.89 755.43 298.33 754.89 298.91 754.91
  C 299.72 754.94 300.35 755.29 300.80 755.98
  C 304.03 760.89 308.04 765.37 312.81 769.42
  C 316.58 772.61 320.57 775.58 324.77 778.32
  C 327.50 780.11 330.41 781.66 333.49 782.97
  C 343.36 787.19 354.03 789.25 365.50 789.14
  C 385.01 788.96 404.51 788.92 424.00 789.01
  C 426.77 789.02 429.52 789.03 432.25 789.03
  C 479.06 788.98 525.86 788.98 572.66 789.01
  C 583.77 789.02 594.90 789.30 606.02 789.37
  L 609.82 789.35
  L 614.00 789.32
  L 619.74 789.25
  C 630.16 789.00 640.60 788.91 651.07 788.98
  C 657.76 789.02 663.02 788.67 666.86 787.92
  C 674.35 786.46 681.33 783.98 687.78 780.49
  C 700.51 773.60 710.96 763.85 719.14 751.23
  Z"
/>
</svg>
