<?xml version="1.0" encoding="UTF-8" standalone="no"?>
<!DOCTYPE svg PUBLIC "-//W3C//DTD SVG 1.1//EN" "http://www.w3.org/Graphics/SVG/1.1/DTD/svg11.dtd">
<svg xmlns="http://www.w3.org/2000/svg" version="1.1" viewBox="0.00 0.00 140.00 67.00">
<g stroke-width="2.00" fill="none" stroke-linecap="butt">
<path stroke="#0e588d" vector-effect="non-scaling-stroke" d="
  M 23.24 40.31
  C 25.24 39.99 27.32 39.89 29.49 40.00
  C 39.01 40.48 40.48 30.86 38.44 23.68
  C 37.54 20.53 34.42 18.03 31.11 18.02
  C 26.16 17.99 20.88 17.99 15.25 18.00
  C 15.05 18.00 14.95 18.10 14.95 18.30
  L 14.98 49.75
  C 14.98 49.90 15.10 50.03 15.25 50.03
  L 22.00 49.99
  C 22.17 49.99 22.25 49.91 22.25 49.75
  L 22.26 41.46
  C 22.26 40.79 22.59 40.41 23.24 40.31"
/>
<path stroke="#0e588d" vector-effect="non-scaling-stroke" d="
  M 75.5199 33.9416
  C 75.49 25.10 67.97 17.96 58.7341 17.9901
  C 49.49 18.02 42.03 25.22 42.0601 34.0584
  C 42.09 42.90 49.61 50.04 58.8459 50.0099
  C 68.09 49.98 75.55 42.78 75.5199 33.9416"
/>
<path stroke="#0e588d" vector-effect="non-scaling-stroke" d="
  M 80.30 44.68
  L 79.75 49.57
  C 79.72 49.80 79.83 49.93 80.06 49.94
  C 85.52 50.25 96.89 51.11 97.85 43.54
  C 98.46 38.81 97.10 35.37 93.78 33.20
  C 90.96 31.36 87.31 31.72 85.64 28.34
  C 85.19 27.43 85.21 26.54 85.69 25.65
  C 87.64 22.07 92.49 23.87 95.59 24.66
  C 95.76 24.71 95.94 24.59 95.96 24.41
  L 96.49 19.11
  C 96.50 18.98 96.42 18.85 96.29 18.82
  C 89.61 16.97 76.27 17.35 78.20 28.27
  C 78.96 32.60 81.46 35.26 85.69 36.27
  C 88.68 36.99 93.03 40.63 89.41 43.47
  C 87.80 44.74 84.88 45.05 80.66 44.40
  C 80.44 44.37 80.32 44.46 80.30 44.68"
/>
<path stroke="#0e588d" vector-effect="non-scaling-stroke" d="
  M 116.94 24.39
  C 118.79 23.97 121.06 23.85 123.74 24.04
  C 124.01 24.06 124.25 23.84 124.25 23.56
  L 124.27 18.51
  C 124.28 18.16 124.11 17.99 123.76 17.99
  L 101.48 18.00
  C 101.13 18.00 100.95 18.17 100.96 18.52
  L 100.99 23.50
  C 100.99 23.85 101.16 24.02 101.50 24.02
  L 107.48 24.02
  C 108.29 24.02 108.95 24.67 108.95 25.48
  L 108.96 49.74
  C 108.96 49.93 109.05 50.02 109.24 50.02
  L 115.75 50.00
  C 116.08 50.00 116.25 49.83 116.25 49.50
  L 116.26 25.24
  C 116.26 24.83 116.54 24.48 116.94 24.39"
/>
<path stroke="#0e588d" vector-effect="non-scaling-stroke" d="
  M 22.25 25.60
  L 22.25 32.40
  C 22.25 33.44 23.10 34.29 24.14 34.29
  L 27.01 34.29
  C 29.75 34.29 31.97 31.99 31.97 29.15
  L 31.97 28.85
  C 31.97 26.01 29.75 23.71 27.01 23.71
  L 24.14 23.71
  C 23.10 23.71 22.25 24.56 22.25 25.60"
/>
<path stroke="#0e588d" vector-effect="non-scaling-stroke" d="
  M 67.9298 33.9358
  C 67.90 29.23 63.75 25.44 58.6705 25.4802
  C 53.59 25.52 49.50 29.36 49.5302 34.0642
  C 49.56 38.77 53.71 42.56 58.7895 42.5198
  C 63.87 42.48 67.96 38.64 67.9298 33.9358"
/>
</g>
<path fill="#002938" d="
  M 39.73 36.17
  C 38.91 37.27 38.53 38.63 37.40 39.48
  C 33.43 42.49 29.61 41.98 24.96 41.99
  C 24.49 41.99 24.26 42.22 24.26 42.68
  L 24.26 50.25
  C 24.26 51.22 23.47 52.00 22.50 52.00
  L 15.00 51.99
  C 13.67 51.99 13.00 51.33 13.00 50.00
  L 13.00 17.53
  C 13.00 16.66 13.72 15.96 14.59 15.98
  C 18.65 16.07 22.91 16.05 27.38 15.92
  C 35.31 15.70 40.17 18.45 41.04 26.70
  C 41.15 27.70 41.40 27.74 41.79 26.82
  C 43.50 22.86 46.38 19.92 50.41 18.01
  C 56.60 15.06 62.72 15.36 68.75 18.90
  C 69.75 19.48 70.35 20.49 71.43 20.84
  C 71.76 20.94 72.04 21.15 72.26 21.42
  C 73.48 22.97 74.55 24.61 75.46 26.34
  C 75.68 26.77 75.82 26.74 75.89 26.26
  C 76.67 20.41 80.32 17.05 86.84 16.18
  C 89.85 15.79 92.93 15.95 96.08 16.67
  C 97.50 16.99 98.19 17.88 98.15 19.33
  L 98.01 24.00
  C 97.94 26.22 96.84 27.04 94.70 26.45
  C 92.87 25.96 91.13 25.63 89.47 25.46
  C 87.74 25.28 86.33 27.31 88.06 28.55
  C 88.73 29.03 89.40 29.36 90.09 29.55
  C 97.78 31.58 102.66 39.60 98.56 47.10
  C 95.36 52.96 85.57 51.97 80.15 52.04
  C 78.40 52.07 77.61 51.21 77.79 49.46
  L 78.30 44.71
  C 78.48 42.96 79.44 42.24 81.17 42.53
  C 83.25 42.88 85.33 42.81 87.42 42.34
  C 88.89 42.01 89.15 41.13 88.22 39.72
  C 87.81 39.10 87.17 38.67 86.45 38.52
  C 82.40 37.73 79.41 35.51 77.47 31.86
  C 77.23 31.41 77.15 31.43 77.24 31.94
  C 77.89 35.90 76.98 39.70 74.52 43.35
  C 73.82 44.40 73.13 45.41 72.46 46.38
  C 72.27 46.65 72.03 46.85 71.73 46.98
  C 70.27 47.63 69.51 48.81 68.11 49.51
  C 60.64 53.28 53.66 52.78 47.16 47.99
  C 43.43 45.24 41.13 41.34 40.24 36.29
  C 40.16 35.86 39.99 35.82 39.73 36.17
  Z
  M 23.24 40.31
  C 25.24 39.99 27.32 39.89 29.49 40.00
  C 39.01 40.48 40.48 30.86 38.44 23.68
  C 37.54 20.53 34.42 18.03 31.11 18.02
  C 26.16 17.99 20.88 17.99 15.25 18.00
  C 15.05 18.00 14.95 18.10 14.95 18.30
  L 14.98 49.75
  C 14.98 49.90 15.10 50.03 15.25 50.03
  L 22.00 49.99
  C 22.17 49.99 22.25 49.91 22.25 49.75
  L 22.26 41.46
  C 22.26 40.79 22.59 40.41 23.24 40.31
  Z
  M 75.5199 33.9416
  C 75.49 25.10 67.97 17.96 58.7341 17.9901
  C 49.49 18.02 42.03 25.22 42.0601 34.0584
  C 42.09 42.90 49.61 50.04 58.8459 50.0099
  C 68.09 49.98 75.55 42.78 75.5199 33.9416
  Z
  M 80.30 44.68
  L 79.75 49.57
  C 79.72 49.80 79.83 49.93 80.06 49.94
  C 85.52 50.25 96.89 51.11 97.85 43.54
  C 98.46 38.81 97.10 35.37 93.78 33.20
  C 90.96 31.36 87.31 31.72 85.64 28.34
  C 85.19 27.43 85.21 26.54 85.69 25.65
  C 87.64 22.07 92.49 23.87 95.59 24.66
  C 95.76 24.71 95.94 24.59 95.96 24.41
  L 96.49 19.11
  C 96.50 18.98 96.42 18.85 96.29 18.82
  C 89.61 16.97 76.27 17.35 78.20 28.27
  C 78.96 32.60 81.46 35.26 85.69 36.27
  C 88.68 36.99 93.03 40.63 89.41 43.47
  C 87.80 44.74 84.88 45.05 80.66 44.40
  C 80.44 44.37 80.32 44.46 80.30 44.68
  Z"
/>
<path fill="#002938" d="
  M 106.25 26.01
  L 101.05 25.99
  C 99.87 25.98 99.22 25.39 99.09 24.22
  C 98.85 22.05 98.75 20.12 98.78 18.41
  C 98.81 16.80 99.62 16.00 101.23 16.00
  L 124.00 16.00
  C 125.51 16.00 126.26 16.75 126.26 18.25
  L 126.26 23.74
  C 126.26 25.25 125.51 26.00 124.01 26.00
  L 118.76 26.00
  C 118.43 26.00 118.26 26.17 118.26 26.50
  L 118.26 50.25
  C 118.26 51.22 117.47 52.01 116.50 52.00
  L 108.50 51.99
  C 107.67 51.99 107.00 51.32 107.00 50.50
  L 107.00 26.75
  C 107.00 26.26 106.75 26.01 106.25 26.01
  Z
  M 116.94 24.39
  C 118.79 23.97 121.06 23.85 123.74 24.04
  C 124.01 24.06 124.25 23.84 124.25 23.56
  L 124.27 18.51
  C 124.28 18.16 124.11 17.99 123.76 17.99
  L 101.48 18.00
  C 101.13 18.00 100.95 18.17 100.96 18.52
  L 100.99 23.50
  C 100.99 23.85 101.16 24.02 101.50 24.02
  L 107.48 24.02
  C 108.29 24.02 108.95 24.67 108.95 25.48
  L 108.96 49.74
  C 108.96 49.93 109.05 50.02 109.24 50.02
  L 115.75 50.00
  C 116.08 50.00 116.25 49.83 116.25 49.50
  L 116.26 25.24
  C 116.26 24.83 116.54 24.48 116.94 24.39
  Z"
/>
<path fill="#1c87e2" d="
  M 23.24 40.31
  C 22.59 40.41 22.26 40.79 22.26 41.46
  L 22.25 49.75
  C 22.25 49.91 22.17 49.99 22.00 49.99
  L 15.25 50.03
  C 15.10 50.03 14.98 49.90 14.98 49.75
  L 14.95 18.30
  C 14.95 18.10 15.05 18.00 15.25 18.00
  C 20.88 17.99 26.16 17.99 31.11 18.02
  C 34.42 18.03 37.54 20.53 38.44 23.68
  C 40.48 30.86 39.01 40.48 29.49 40.00
  C 27.32 39.89 25.24 39.99 23.24 40.31
  Z
  M 22.25 25.60
  L 22.25 32.40
  C 22.25 33.44 23.10 34.29 24.14 34.29
  L 27.01 34.29
  C 29.75 34.29 31.97 31.99 31.97 29.15
  L 31.97 28.85
  C 31.97 26.01 29.75 23.71 27.01 23.71
  L 24.14 23.71
  C 23.10 23.71 22.25 24.56 22.25 25.60
  Z"
/>
<path fill="#1c87e2" d="
  M 75.5199 33.9416
  C 75.55 42.78 68.09 49.98 58.8459 50.0099
  C 49.61 50.04 42.09 42.90 42.0601 34.0584
  C 42.03 25.22 49.49 18.02 58.7341 17.9901
  C 67.97 17.96 75.49 25.10 75.5199 33.9416
  Z
  M 67.9298 33.9358
  C 67.90 29.23 63.75 25.44 58.6705 25.4802
  C 53.59 25.52 49.50 29.36 49.5302 34.0642
  C 49.56 38.77 53.71 42.56 58.7895 42.5198
  C 63.87 42.48 67.96 38.64 67.9298 33.9358
  Z"
/>
<path fill="#1c87e2" d="
  M 80.66 44.40
  C 84.88 45.05 87.80 44.74 89.41 43.47
  C 93.03 40.63 88.68 36.99 85.69 36.27
  C 81.46 35.26 78.96 32.60 78.20 28.27
  C 76.27 17.35 89.61 16.97 96.29 18.82
  C 96.42 18.85 96.50 18.98 96.49 19.11
  L 95.96 24.41
  C 95.94 24.59 95.76 24.71 95.59 24.66
  C 92.49 23.87 87.64 22.07 85.69 25.65
  C 85.21 26.54 85.19 27.43 85.64 28.34
  C 87.31 31.72 90.96 31.36 93.78 33.20
  C 97.10 35.37 98.46 38.81 97.85 43.54
  C 96.89 51.11 85.52 50.25 80.06 49.94
  C 79.83 49.93 79.72 49.80 79.75 49.57
  L 80.30 44.68
  C 80.32 44.46 80.44 44.37 80.66 44.40
  Z"
/>
<path fill="#1c87e2" d="
  M 116.94 24.39
  C 116.54 24.48 116.26 24.83 116.26 25.24
  L 116.25 49.50
  C 116.25 49.83 116.08 50.00 115.75 50.00
  L 109.24 50.02
  C 109.05 50.02 108.96 49.93 108.96 49.74
  L 108.95 25.48
  C 108.95 24.67 108.29 24.02 107.48 24.02
  L 101.50 24.02
  C 101.16 24.02 100.99 23.85 100.99 23.50
  L 100.96 18.52
  C 100.95 18.17 101.13 18.00 101.48 18.00
  L 123.76 17.99
  C 124.11 17.99 124.28 18.16 124.27 18.51
  L 124.25 23.56
  C 124.25 23.84 124.01 24.06 123.74 24.04
  C 121.06 23.85 118.79 23.97 116.94 24.39
  Z"
/>
<path fill="#002938" d="
  M 22.25 25.60
  C 22.25 24.56 23.10 23.71 24.14 23.71
  L 27.01 23.71
  C 29.75 23.71 31.97 26.01 31.97 28.85
  L 31.97 29.15
  C 31.97 31.99 29.75 34.29 27.01 34.29
  L 24.14 34.29
  C 23.10 34.29 22.25 33.44 22.25 32.40
  L 22.25 25.60
  Z
  M 24.24 25.98
  L 24.26 32.02
  C 24.26 32.18 24.39 32.30 24.55 32.30
  L 27.58 32.30
  C 28.92 32.30 30.01 31.06 30.01 29.54
  L 30.01 28.42
  C 30.01 26.91 28.91 25.68 27.56 25.68
  L 24.53 25.68
  C 24.37 25.68 24.24 25.81 24.24 25.98
  Z"
/>
<path fill="#002938" d="
  M 67.9298 33.9358
  C 67.96 38.64 63.87 42.48 58.7895 42.5198
  C 53.71 42.56 49.56 38.77 49.5302 34.0642
  C 49.50 29.36 53.59 25.52 58.6705 25.4802
  C 63.75 25.44 67.90 29.23 67.9298 33.9358
  Z
  M 66.0400 33.9873
  C 66.03 30.34 62.76 27.38 58.7385 27.3900
  C 54.71 27.40 51.45 30.36 51.4600 34.0127
  C 51.47 37.66 54.74 40.62 58.7615 40.6100
  C 62.79 40.60 66.05 37.64 66.0400 33.9873
  Z"
/>
</svg>
