<?xml version="1.0" encoding="UTF-8" standalone="no"?>
<!DOCTYPE svg PUBLIC "-//W3C//DTD SVG 1.1//EN" "http://www.w3.org/Graphics/SVG/1.1/DTD/svg11.dtd">
<svg xmlns="http://www.w3.org/2000/svg" version="1.1" viewBox="0.00 0.00 140.00 67.00">
<g stroke-width="2.00" fill="none" stroke-linecap="butt">
<path stroke="#0e568a" vector-effect="non-scaling-stroke" d="
  M 40.95 40.40
  C 46.62 39.04 53.44 42.16 56.26 34.75
  C 57.89 30.46 57.94 23.20 53.95 19.83
  C 52.53 18.62 50.95 18.01 49.22 17.99
  C 44.20 17.93 38.86 17.94 33.20 18.01
  C 33.05 18.01 32.92 18.14 32.92 18.29
  L 32.90 49.83
  C 32.90 49.97 32.97 50.04 33.11 50.03
  L 39.99 50.02
  C 40.16 50.02 40.25 49.93 40.25 49.76
  L 40.27 41.27
  C 40.27 40.86 40.55 40.50 40.95 40.40"
/>
<path stroke="#0e568a" vector-effect="non-scaling-stroke" d="
  M 68.98 40.82
  C 73.62 41.41 76.17 44.43 76.62 49.88
  C 76.63 49.98 76.68 50.03 76.79 50.03
  L 84.15 50.03
  C 84.32 50.03 84.41 49.95 84.40 49.78
  C 84.34 46.15 83.18 42.81 80.93 39.75
  C 80.58 39.28 80.60 38.63 80.97 38.18
  C 81.99 36.93 83.07 35.81 83.50 34.19
  C 85.13 27.98 84.19 18.18 76.18 18.06
  C 70.79 17.97 65.66 17.95 60.80 18.00
  C 60.13 18.01 59.80 18.34 59.81 19.01
  L 59.99 49.76
  C 59.99 49.90 60.11 50.02 60.26 50.02
  L 67.00 50.00
  C 67.17 50.00 67.26 49.92 67.26 49.75
  L 67.27 42.33
  C 67.27 41.41 68.07 40.70 68.98 40.82"
/>
<path stroke="#0e568a" vector-effect="non-scaling-stroke" d="
  M 94.28 25.88
  C 94.29 24.66 94.90 24.05 96.12 24.05
  L 105.06 24.05
  C 105.54 24.05 105.92 23.66 105.91 23.19
  L 105.77 18.73
  C 105.76 18.22 105.49 17.96 104.97 17.95
  L 87.78 17.95
  C 87.33 17.95 86.97 18.30 86.95 18.75
  C 86.58 28.96 87.16 39.38 86.67 49.46
  C 86.65 49.85 86.84 50.05 87.23 50.05
  L 105.16 50.03
  C 105.54 50.03 105.84 49.72 105.83 49.34
  L 105.74 44.70
  C 105.73 44.18 105.46 43.92 104.94 43.92
  L 96.23 43.95
  C 94.91 43.96 94.26 43.30 94.27 41.98
  L 94.29 39.02
  C 94.30 37.74 94.94 37.11 96.22 37.12
  L 103.14 37.19
  C 103.80 37.20 104.33 36.66 104.32 36.00
  L 104.27 31.73
  C 104.26 31.30 103.91 30.95 103.48 30.95
  L 96.11 30.97
  C 94.87 30.97 94.25 30.35 94.26 29.11
  L 94.28 25.88"
/>
<path stroke="#0e568a" vector-effect="non-scaling-stroke" d="
  M 40.27 25.59
  L 40.27 32.41
  C 40.27 33.45 41.11 34.29 42.15 34.29
  L 44.93 34.29
  C 47.70 34.29 49.95 31.99 49.95 29.15
  L 49.95 28.85
  C 49.95 26.01 47.70 23.71 44.93 23.71
  L 42.15 23.71
  C 41.11 23.71 40.27 24.55 40.27 25.59"
/>
<path stroke="#0e568a" vector-effect="non-scaling-stroke" d="
  M 67.27 26.40
  L 67.25 32.22
  C 67.25 33.32 68.14 34.20 69.23 34.20
  L 72.09 34.21
  C 74.78 34.21 76.96 32.11 76.96 29.51
  L 76.96 29.15
  C 76.96 26.55 74.79 24.43 72.11 24.43
  L 69.25 24.42
  C 68.16 24.42 67.27 25.31 67.27 26.40"
/>
</g>
<path fill="#002432" d="
  M 57.97 21.46
  L 58.03 17.53
  C 58.04 16.70 58.72 16.03 59.55 16.02
  C 65.06 16.00 70.46 15.99 75.74 16.00
  C 78.35 16.01 80.85 17.09 83.22 19.26
  C 83.47 19.49 83.64 19.78 83.73 20.12
  C 83.84 20.57 84.03 21.00 84.30 21.41
  C 84.65 21.92 84.84 21.86 84.87 21.25
  L 85.06 17.56
  C 85.10 16.69 85.82 16.01 86.69 16.01
  L 105.50 16.00
  C 106.99 16.00 107.74 16.75 107.74 18.25
  L 107.72 24.23
  C 107.72 25.40 107.14 25.99 105.97 25.99
  L 96.75 26.00
  C 96.42 26.00 96.26 26.17 96.25 26.50
  L 96.24 28.49
  C 96.24 28.83 96.41 29.00 96.74 29.00
  L 104.00 29.00
  C 105.50 29.00 106.25 29.75 106.26 31.25
  L 106.26 36.74
  C 106.26 38.25 105.51 39.00 104.00 39.00
  L 96.76 38.99
  C 96.43 38.99 96.27 39.16 96.27 39.49
  L 96.24 41.49
  C 96.23 41.77 96.46 42.00 96.74 42.00
  L 105.62 42.01
  C 107.03 42.01 107.74 42.71 107.74 44.12
  L 107.73 50.11
  C 107.73 51.15 106.88 52.00 105.84 52.00
  L 76.80 51.94
  C 75.58 51.94 74.59 50.96 74.58 49.74
  C 74.55 46.25 72.97 43.95 69.86 42.84
  C 69.45 42.69 69.25 42.84 69.25 43.27
  L 69.26 50.12
  C 69.26 51.16 68.42 52.00 67.38 52.00
  L 60.12 51.99
  C 58.71 51.99 58.01 51.28 58.01 49.87
  L 57.99 37.24
  C 57.99 35.97 57.71 35.91 57.14 37.04
  C 54.50 42.34 48.37 42.20 43.00 41.97
  C 42.51 41.95 42.26 42.19 42.26 42.68
  L 42.26 50.25
  C 42.26 51.22 41.47 52.00 40.50 52.00
  L 33.00 51.99
  C 31.67 51.99 31.00 51.33 31.00 50.00
  L 31.00 17.79
  C 31.00 16.57 31.61 15.97 32.83 15.99
  C 37.42 16.05 42.10 16.03 46.86 15.94
  C 51.21 15.86 55.87 17.26 57.53 21.54
  C 57.62 21.77 57.97 21.71 57.97 21.46
  Z
  M 40.95 40.40
  C 46.62 39.04 53.44 42.16 56.26 34.75
  C 57.89 30.46 57.94 23.20 53.95 19.83
  C 52.53 18.62 50.95 18.01 49.22 17.99
  C 44.20 17.93 38.86 17.94 33.20 18.01
  C 33.05 18.01 32.92 18.14 32.92 18.29
  L 32.90 49.83
  C 32.90 49.97 32.97 50.04 33.11 50.03
  L 39.99 50.02
  C 40.16 50.02 40.25 49.93 40.25 49.76
  L 40.27 41.27
  C 40.27 40.86 40.55 40.50 40.95 40.40
  Z
  M 68.98 40.82
  C 73.62 41.41 76.17 44.43 76.62 49.88
  C 76.63 49.98 76.68 50.03 76.79 50.03
  L 84.15 50.03
  C 84.32 50.03 84.41 49.95 84.40 49.78
  C 84.34 46.15 83.18 42.81 80.93 39.75
  C 80.58 39.28 80.60 38.63 80.97 38.18
  C 81.99 36.93 83.07 35.81 83.50 34.19
  C 85.13 27.98 84.19 18.18 76.18 18.06
  C 70.79 17.97 65.66 17.95 60.80 18.00
  C 60.13 18.01 59.80 18.34 59.81 19.01
  L 59.99 49.76
  C 59.99 49.90 60.11 50.02 60.26 50.02
  L 67.00 50.00
  C 67.17 50.00 67.26 49.92 67.26 49.75
  L 67.27 42.33
  C 67.27 41.41 68.07 40.70 68.98 40.82
  Z
  M 94.28 25.88
  C 94.29 24.66 94.90 24.05 96.12 24.05
  L 105.06 24.05
  C 105.54 24.05 105.92 23.66 105.91 23.19
  L 105.77 18.73
  C 105.76 18.22 105.49 17.96 104.97 17.95
  L 87.78 17.95
  C 87.33 17.95 86.97 18.30 86.95 18.75
  C 86.58 28.96 87.16 39.38 86.67 49.46
  C 86.65 49.85 86.84 50.05 87.23 50.05
  L 105.16 50.03
  C 105.54 50.03 105.84 49.72 105.83 49.34
  L 105.74 44.70
  C 105.73 44.18 105.46 43.92 104.94 43.92
  L 96.23 43.95
  C 94.91 43.96 94.26 43.30 94.27 41.98
  L 94.29 39.02
  C 94.30 37.74 94.94 37.11 96.22 37.12
  L 103.14 37.19
  C 103.80 37.20 104.33 36.66 104.32 36.00
  L 104.27 31.73
  C 104.26 31.30 103.91 30.95 103.48 30.95
  L 96.11 30.97
  C 94.87 30.97 94.25 30.35 94.26 29.11
  L 94.28 25.88
  Z
  M 84.23 41.76
  C 84.19 41.90 84.22 42.03 84.32 42.15
  C 84.53 42.40 84.68 42.36 84.75 42.04
  C 85.12 40.43 85.12 38.65 84.77 36.70
  C 84.70 36.29 84.53 36.25 84.28 36.58
  C 82.91 38.40 82.86 40.01 84.15 41.42
  C 84.24 41.51 84.27 41.64 84.23 41.76
  Z"
/>
<path fill="#1c87e2" d="
  M 40.95 40.40
  C 40.55 40.50 40.27 40.86 40.27 41.27
  L 40.25 49.76
  C 40.25 49.93 40.16 50.02 39.99 50.02
  L 33.11 50.03
  C 32.97 50.04 32.90 49.97 32.90 49.83
  L 32.92 18.29
  C 32.92 18.14 33.05 18.01 33.20 18.01
  C 38.86 17.94 44.20 17.93 49.22 17.99
  C 50.95 18.01 52.53 18.62 53.95 19.83
  C 57.94 23.20 57.89 30.46 56.26 34.75
  C 53.44 42.16 46.62 39.04 40.95 40.40
  Z
  M 40.27 25.59
  L 40.27 32.41
  C 40.27 33.45 41.11 34.29 42.15 34.29
  L 44.93 34.29
  C 47.70 34.29 49.95 31.99 49.95 29.15
  L 49.95 28.85
  C 49.95 26.01 47.70 23.71 44.93 23.71
  L 42.15 23.71
  C 41.11 23.71 40.27 24.55 40.27 25.59
  Z"
/>
<path fill="#1c87e2" d="
  M 68.98 40.82
  C 68.07 40.70 67.27 41.41 67.27 42.33
  L 67.26 49.75
  C 67.26 49.92 67.17 50.00 67.00 50.00
  L 60.26 50.02
  C 60.11 50.02 59.99 49.90 59.99 49.76
  L 59.81 19.01
  C 59.80 18.34 60.13 18.01 60.80 18.00
  C 65.66 17.95 70.79 17.97 76.18 18.06
  C 84.19 18.18 85.13 27.98 83.50 34.19
  C 83.07 35.81 81.99 36.93 80.97 38.18
  C 80.60 38.63 80.58 39.28 80.93 39.75
  C 83.18 42.81 84.34 46.15 84.40 49.78
  C 84.41 49.95 84.32 50.03 84.15 50.03
  L 76.79 50.03
  C 76.68 50.03 76.63 49.98 76.62 49.88
  C 76.17 44.43 73.62 41.41 68.98 40.82
  Z
  M 67.27 26.40
  L 67.25 32.22
  C 67.25 33.32 68.14 34.20 69.23 34.20
  L 72.09 34.21
  C 74.78 34.21 76.96 32.11 76.96 29.51
  L 76.96 29.15
  C 76.96 26.55 74.79 24.43 72.11 24.43
  L 69.25 24.42
  C 68.16 24.42 67.27 25.31 67.27 26.40
  Z"
/>
<path fill="#1c87e2" d="
  M 94.28 25.88
  L 94.26 29.11
  C 94.25 30.35 94.87 30.97 96.11 30.97
  L 103.48 30.95
  C 103.91 30.95 104.26 31.30 104.27 31.73
  L 104.32 36.00
  C 104.33 36.66 103.80 37.20 103.14 37.19
  L 96.22 37.12
  C 94.94 37.11 94.30 37.74 94.29 39.02
  L 94.27 41.98
  C 94.26 43.30 94.91 43.96 96.23 43.95
  L 104.94 43.92
  C 105.46 43.92 105.73 44.18 105.74 44.70
  L 105.83 49.34
  C 105.84 49.72 105.54 50.03 105.16 50.03
  L 87.23 50.05
  C 86.84 50.05 86.65 49.85 86.67 49.46
  C 87.16 39.38 86.58 28.96 86.95 18.75
  C 86.97 18.30 87.33 17.95 87.78 17.95
  L 104.97 17.95
  C 105.49 17.96 105.76 18.22 105.77 18.73
  L 105.91 23.19
  C 105.92 23.66 105.54 24.05 105.06 24.05
  L 96.12 24.05
  C 94.90 24.05 94.29 24.66 94.28 25.88
  Z"
/>
<path fill="#002432" d="
  M 40.27 25.59
  C 40.27 24.55 41.11 23.71 42.15 23.71
  L 44.93 23.71
  C 47.70 23.71 49.95 26.01 49.95 28.85
  L 49.95 29.15
  C 49.95 31.99 47.70 34.29 44.93 34.29
  L 42.15 34.29
  C 41.11 34.29 40.27 33.45 40.27 32.41
  L 40.27 25.59
  Z
  M 42.28 25.96
  L 42.24 32.00
  C 42.24 32.17 42.38 32.31 42.55 32.31
  L 45.50 32.33
  C 46.88 32.34 48.01 31.10 48.02 29.55
  L 48.02 28.49
  C 48.03 26.94 46.92 25.68 45.54 25.67
  L 42.59 25.65
  C 42.42 25.65 42.28 25.79 42.28 25.96
  Z"
/>
<path fill="#002432" d="
  M 67.27 26.40
  C 67.27 25.31 68.16 24.42 69.25 24.42
  L 72.11 24.43
  C 74.79 24.43 76.96 26.55 76.96 29.15
  L 76.96 29.51
  C 76.96 32.11 74.78 34.21 72.09 34.21
  L 69.23 34.20
  C 68.14 34.20 67.25 33.32 67.25 32.22
  L 67.27 26.40
  Z
  M 69.25 26.68
  L 69.25 31.98
  C 69.25 32.14 69.38 32.27 69.54 32.27
  L 72.20 32.27
  C 73.75 32.27 75.01 31.15 75.01 29.76
  L 75.01 28.90
  C 75.01 27.51 73.75 26.39 72.20 26.39
  L 69.54 26.39
  C 69.38 26.39 69.25 26.52 69.25 26.68
  Z"
/>
</svg>
