<?xml version="1.0" encoding="UTF-8" standalone="no"?>
<!DOCTYPE svg PUBLIC "-//W3C//DTD SVG 1.1//EN" "http://www.w3.org/Graphics/SVG/1.1/DTD/svg11.dtd">
<svg xmlns="http://www.w3.org/2000/svg" version="1.1" viewBox="0.00 0.00 1080.00 731.00">
<path stroke="#808080" stroke-width="2.00" fill="none" stroke-linecap="butt" vector-effect="non-scaling-stroke" d="
  M 247.10 191.83
  C 235.07 211.13 227.22 233.34 222.27 255.66
  C 217.80 275.81 214.59 297.41 212.66 320.45
  C 210.55 345.62 208.23 371.69 208.02 396.25
  C 207.65 438.61 213.88 481.55 238.69 516.41
  C 252.95 536.46 272.48 550.46 297.29 558.41
  C 314.31 563.87 333.25 567.36 354.10 568.89
  C 358.70 569.22 362.50 571.08 365.51 574.45
  C 366.87 575.97 367.54 577.51 367.53 579.08
  C 367.38 595.45 366.02 611.05 363.45 625.88
  C 363.40 626.19 363.51 626.28 363.78 626.15
  C 388.39 614.87 407.79 598.76 421.99 577.82
  C 424.02 574.83 426.80 573.23 430.52 573.61
  C 433.18 573.88 435.80 574.10 438.38 574.26
  C 468.85 576.17 501.00 577.51 534.83 578.30
  C 581.08 579.38 625.72 578.27 668.73 574.96
  C 698.33 572.68 727.90 569.08 756.73 562.39
  C 794.96 553.51 834.52 535.07 852.81 498.92
  C 861.11 482.52 864.99 464.48 867.41 445.73
  C 874.52 390.60 877.76 336.00 878.87 280.98
  C 879.56 246.47 879.98 210.44 864.27 179.59
  C 842.16 136.16 789.17 122.32 744.00 119.62
  C 739.71 119.36 733.05 119.21 724.00 119.16
  C 642.43 118.72 560.68 119.56 478.74 121.67
  C 454.13 122.30 430.21 123.27 406.99 124.57
  C 387.24 125.67 368.03 127.76 349.36 130.84
  C 329.68 134.08 310.03 139.72 292.60 148.94
  C 273.94 158.81 258.77 173.10 247.10 191.83"
/>
<path fill="#000000" d="
  M 348.94 584.91
  C 348.95 584.73 348.82 584.57 348.64 584.55
  C 317.84 580.88 287.35 574.04 261.21 557.10
  C 217.29 528.64 195.86 477.21 190.97 426.58
  C 189.78 414.29 189.28 402.08 189.46 389.95
  C 189.74 371.02 190.82 351.61 192.71 331.74
  C 193.98 318.40 195.29 305.58 196.65 293.27
  C 197.46 285.90 198.67 277.23 200.27 267.26
  C 206.73 227.12 220.23 185.70 249.38 156.27
  C 264.49 141.02 283.34 129.80 305.91 122.63
  C 318.20 118.72 330.85 115.78 343.86 113.79
  C 371.73 109.52 400.25 107.67 428.65 106.57
  C 480.72 104.56 531.49 103.40 580.95 103.11
  C 582.76 103.10 584.50 102.84 586.31 102.82
  C 620.95 102.55 656.92 102.38 694.23 102.29
  C 705.28 102.26 718.95 102.50 735.24 103.01
  C 742.57 103.24 746.25 103.35 746.26 103.36
  C 763.69 104.70 780.60 107.87 796.99 112.86
  C 835.99 124.75 868.19 148.35 884.63 186.31
  C 893.30 206.33 896.26 229.16 897.31 251.26
  C 897.54 256.31 897.61 262.97 897.51 271.25
  C 896.92 318.10 894.48 364.86 890.17 411.53
  C 888.67 427.83 886.75 444.40 884.41 461.23
  C 883.20 469.95 881.24 478.96 878.54 488.26
  C 872.24 509.91 861.09 527.72 845.09 541.67
  C 811.22 571.19 765.16 581.21 721.23 586.79
  C 683.95 591.52 646.15 594.21 607.82 594.86
  C 607.17 594.87 606.63 595.12 606.00 595.13
  C 586.10 595.43 564.80 595.55 542.31 594.98
  C 504.18 594.01 470.15 592.61 440.24 590.77
  C 439.01 590.69 438.25 590.84 437.98 591.21
  C 418.82 617.35 393.98 635.75 363.45 646.40
  C 361.48 647.09 359.18 647.81 356.53 648.57
  C 354.55 649.13 352.80 649.20 351.28 648.77
  C 345.93 647.25 340.25 641.93 341.69 635.76
  C 345.60 618.99 348.01 602.04 348.94 584.91
  Z
  M 247.10 191.83
  C 235.07 211.13 227.22 233.34 222.27 255.66
  C 217.80 275.81 214.59 297.41 212.66 320.45
  C 210.55 345.62 208.23 371.69 208.02 396.25
  C 207.65 438.61 213.88 481.55 238.69 516.41
  C 252.95 536.46 272.48 550.46 297.29 558.41
  C 314.31 563.87 333.25 567.36 354.10 568.89
  C 358.70 569.22 362.50 571.08 365.51 574.45
  C 366.87 575.97 367.54 577.51 367.53 579.08
  C 367.38 595.45 366.02 611.05 363.45 625.88
  C 363.40 626.19 363.51 626.28 363.78 626.15
  C 388.39 614.87 407.79 598.76 421.99 577.82
  C 424.02 574.83 426.80 573.23 430.52 573.61
  C 433.18 573.88 435.80 574.10 438.38 574.26
  C 468.85 576.17 501.00 577.51 534.83 578.30
  C 581.08 579.38 625.72 578.27 668.73 574.96
  C 698.33 572.68 727.90 569.08 756.73 562.39
  C 794.96 553.51 834.52 535.07 852.81 498.92
  C 861.11 482.52 864.99 464.48 867.41 445.73
  C 874.52 390.60 877.76 336.00 878.87 280.98
  C 879.56 246.47 879.98 210.44 864.27 179.59
  C 842.16 136.16 789.17 122.32 744.00 119.62
  C 739.71 119.36 733.05 119.21 724.00 119.16
  C 642.43 118.72 560.68 119.56 478.74 121.67
  C 454.13 122.30 430.21 123.27 406.99 124.57
  C 387.24 125.67 368.03 127.76 349.36 130.84
  C 329.68 134.08 310.03 139.72 292.60 148.94
  C 273.94 158.81 258.77 173.10 247.10 191.83
  Z"
/>
<path fill="#ffffff" d="
  M 222.27 255.66
  C 227.22 233.34 235.07 211.13 247.10 191.83
  C 258.77 173.10 273.94 158.81 292.60 148.94
  C 310.03 139.72 329.68 134.08 349.36 130.84
  C 368.03 127.76 387.24 125.67 406.99 124.57
  C 430.21 123.27 454.13 122.30 478.74 121.67
  C 560.68 119.56 642.43 118.72 724.00 119.16
  C 733.05 119.21 739.71 119.36 744.00 119.62
  C 789.17 122.32 842.16 136.16 864.27 179.59
  C 879.98 210.44 879.56 246.47 878.87 280.98
  C 877.76 336.00 874.52 390.60 867.41 445.73
  C 864.99 464.48 861.11 482.52 852.81 498.92
  C 834.52 535.07 794.96 553.51 756.73 562.39
  C 727.90 569.08 698.33 572.68 668.73 574.96
  C 625.72 578.27 581.08 579.38 534.83 578.30
  C 501.00 577.51 468.85 576.17 438.38 574.26
  C 435.80 574.10 433.18 573.88 430.52 573.61
  C 426.80 573.23 424.02 574.83 421.99 577.82
  C 407.79 598.76 388.39 614.87 363.78 626.15
  C 363.51 626.28 363.40 626.19 363.45 625.88
  C 366.02 611.05 367.38 595.45 367.53 579.08
  C 367.54 577.51 366.87 575.97 365.51 574.45
  C 362.50 571.08 358.70 569.22 354.10 568.89
  C 333.25 567.36 314.31 563.87 297.29 558.41
  C 272.48 550.46 252.95 536.46 238.69 516.41
  C 213.88 481.55 207.65 438.61 208.02 396.25
  C 208.23 371.69 210.55 345.62 212.66 320.45
  C 214.59 297.41 217.80 275.81 222.27 255.66
  Z"
/>
</svg>
