<?xml version="1.0" encoding="UTF-8" standalone="no"?>
<!DOCTYPE svg PUBLIC "-//W3C//DTD SVG 1.1//EN" "http://www.w3.org/Graphics/SVG/1.1/DTD/svg11.dtd">
<svg xmlns="http://www.w3.org/2000/svg" version="1.1" viewBox="0.00 0.00 1362.00 210.00">
<g stroke-width="2.00" fill="none" stroke-linecap="butt">
<path stroke="#801814" vector-effect="non-scaling-stroke" d="
  M 1189.29 161.30
  C 1192.41 160.03 1195.45 158.27 1198.41 156.04
  C 1208.42 148.51 1214.20 138.47 1215.77 125.92
  C 1216.96 116.35 1211.36 105.32 1206.68 97.26
  C 1198.11 82.51 1188.60 67.88 1181.16 52.17
  C 1178.73 47.03 1176.68 41.87 1175.03 36.69
  C 1174.95 36.43 1174.62 36.35 1174.42 36.54
  C 1173.39 37.53 1172.40 38.58 1171.47 39.71
  C 1166.39 45.84 1161.67 51.90 1157.32 57.89
  C 1153.36 63.34 1149.81 69.30 1146.21 75.19
  C 1141.41 83.06 1137.31 91.27 1133.91 99.82
  C 1131.60 105.63 1129.54 112.57 1129.29 118.27
  C 1128.56 134.47 1134.91 147.48 1148.34 157.31
  C 1151.46 159.59 1155.43 161.41 1160.25 162.77
  C 1170.30 165.62 1179.98 165.13 1189.29 161.30"
/>
<path stroke="#801814" vector-effect="non-scaling-stroke" d="
  M 1154.07 134.18
  C 1150.52 127.17 1148.97 119.74 1149.43 111.89
  C 1149.83 105.08 1151.09 97.82 1153.22 90.10
  C 1153.80 88.01 1153.13 87.47 1151.20 88.48
  C 1150.78 88.70 1150.41 88.97 1150.08 89.30
  C 1139.88 99.53 1134.43 114.34 1138.64 128.29
  C 1140.39 134.12 1142.96 138.96 1146.33 142.82
  C 1151.83 149.12 1161.35 155.28 1169.90 154.39
  C 1173.05 154.06 1173.25 153.10 1170.50 151.53
  C 1163.33 147.42 1157.85 141.64 1154.07 134.18"
/>
</g>
<path fill="#000000" d="
  M 1189.27 0.00
  L 1190.22 0.00
  C 1190.36 4.37 1190.41 8.75 1190.38 13.16
  C 1190.34 19.19 1190.57 23.56 1191.07 26.27
  C 1191.86 30.47 1193.16 34.80 1194.99 39.26
  C 1197.96 46.53 1200.74 52.35 1203.31 56.74
  C 1208.81 66.12 1214.42 75.59 1220.13 85.16
  C 1220.43 85.66 1220.78 86.13 1221.18 86.58
  C 1221.51 86.95 1221.75 87.36 1221.88 87.80
  C 1222.32 89.31 1223.06 90.76 1224.10 92.14
  C 1225.13 93.52 1225.16 94.92 1225.93 96.35
  C 1228.44 101.03 1230.58 106.35 1232.35 112.30
  C 1232.67 113.35 1232.87 114.49 1232.94 115.72
  C 1233.01 116.83 1233.18 117.98 1233.43 119.17
  C 1233.83 121.06 1233.91 123.00 1233.67 124.92
  C 1233.42 126.95 1233.22 129.07 1233.07 131.26
  C 1232.95 133.05 1232.03 134.17 1232.03 136.01
  C 1232.03 136.31 1231.96 136.61 1231.83 136.89
  C 1231.56 137.46 1231.32 138.06 1231.13 138.70
  C 1228.56 147.36 1224.16 155.14 1217.93 162.04
  C 1217.33 162.70 1217.00 163.84 1216.24 164.16
  C 1215.10 164.65 1213.78 166.31 1212.87 167.21
  C 1211.21 168.85 1209.23 169.89 1207.40 171.41
  C 1206.62 172.06 1205.79 172.64 1204.91 173.14
  C 1200.19 175.83 1195.22 178.02 1190.00 179.71
  C 1188.68 180.14 1187.49 180.00 1186.24 180.77
  C 1185.92 180.96 1185.55 181.05 1185.18 181.03
  C 1184.14 180.97 1183.04 181.09 1181.89 181.40
  C 1180.84 181.67 1179.79 181.85 1178.74 181.92
  C 1172.59 182.36 1166.47 182.07 1160.37 181.04
  C 1159.60 180.91 1158.86 180.70 1158.15 180.41
  C 1157.48 180.14 1156.74 180.01 1155.93 180.02
  C 1155.66 180.03 1155.41 179.97 1155.17 179.84
  C 1154.64 179.57 1154.07 179.33 1153.47 179.12
  C 1141.16 174.81 1131.40 167.95 1124.21 158.52
  C 1123.26 157.28 1122.38 155.96 1121.59 154.56
  C 1120.55 152.73 1119.28 151.06 1118.33 149.17
  C 1111.00 134.54 1109.57 119.32 1114.06 103.52
  C 1115.53 98.35 1117.69 92.55 1120.53 86.13
  C 1120.73 85.69 1120.93 85.26 1121.14 84.83
  C 1128.81 69.29 1135.78 57.36 1142.05 49.03
  C 1144.28 46.07 1146.01 43.65 1147.26 41.76
  C 1148.97 39.18 1151.13 36.97 1152.65 34.98
  C 1153.86 33.41 1155.00 32.03 1156.07 30.85
  C 1157.48 29.32 1158.64 27.97 1159.57 26.82
  C 1161.12 24.89 1162.97 22.91 1165.12 20.90
  C 1165.36 20.68 1165.54 20.40 1165.65 20.09
  C 1165.86 19.47 1166.27 19.04 1166.88 18.81
  C 1167.09 18.72 1167.29 18.59 1167.45 18.43
  C 1172.55 13.24 1177.07 9.26 1181.01 6.47
  C 1184.47 4.02 1187.22 1.87 1189.27 0.00
  Z
  M 1189.29 161.30
  C 1192.41 160.03 1195.45 158.27 1198.41 156.04
  C 1208.42 148.51 1214.20 138.47 1215.77 125.92
  C 1216.96 116.35 1211.36 105.32 1206.68 97.26
  C 1198.11 82.51 1188.60 67.88 1181.16 52.17
  C 1178.73 47.03 1176.68 41.87 1175.03 36.69
  C 1174.95 36.43 1174.62 36.35 1174.42 36.54
  C 1173.39 37.53 1172.40 38.58 1171.47 39.71
  C 1166.39 45.84 1161.67 51.90 1157.32 57.89
  C 1153.36 63.34 1149.81 69.30 1146.21 75.19
  C 1141.41 83.06 1137.31 91.27 1133.91 99.82
  C 1131.60 105.63 1129.54 112.57 1129.29 118.27
  C 1128.56 134.47 1134.91 147.48 1148.34 157.31
  C 1151.46 159.59 1155.43 161.41 1160.25 162.77
  C 1170.30 165.62 1179.98 165.13 1189.29 161.30
  Z"
/>
<path fill="#000000" d="
  M 127.03 120.00
  L 92.52 120.00
  C 90.87 120.00 89.54 118.67 89.54 117.02
  L 89.54 87.23
  C 89.54 85.58 90.87 84.25 92.52 84.25
  L 174.01 84.25
  C 175.60 84.25 176.89 85.52 176.92 87.11
  C 177.01 92.19 177.01 97.55 176.91 103.18
  C 175.92 159.21 117.68 195.00 66.81 173.98
  C 28.30 158.06 8.23 115.32 22.62 75.90
  C 37.12 36.17 80.87 14.75 121.83 27.75
  C 137.32 32.67 150.26 41.68 160.66 54.79
  C 161.79 56.22 161.42 58.17 160.00 59.23
  C 149.77 66.88 139.78 74.35 130.03 81.66
  C 128.62 82.72 126.80 82.46 125.74 81.08
  C 120.64 74.41 114.21 69.99 106.45 67.84
  C 80.22 60.55 55.96 83.34 61.60 109.75
  C 65.81 129.44 86.14 141.13 105.33 136.46
  C 114.54 134.22 121.91 128.98 127.42 120.73
  C 127.74 120.24 127.61 120.00 127.03 120.00
  Z"
/>
<path fill="#000000" d="
  M 478.83 67.18
  C 460.89 71.03 448.28 86.43 449.88 104.99
  C 451.15 119.56 461.06 131.45 474.91 135.81
  C 489.49 140.41 503.84 135.05 513.88 123.96
  C 515.32 122.38 517.27 123.39 518.60 124.44
  C 528.51 132.26 537.88 139.66 546.71 146.65
  C 548.20 147.83 547.95 149.83 546.83 151.16
  C 519.40 183.64 472.39 189.87 438.18 164.15
  C 409.00 142.22 398.63 102.82 414.11 69.62
  C 438.75 16.74 510.62 7.90 547.18 53.40
  C 548.35 54.87 547.26 56.69 546.01 57.67
  C 536.08 65.49 526.60 72.96 517.57 80.07
  C 516.19 81.16 514.44 80.66 513.34 79.46
  C 504.67 69.98 491.56 64.46 478.83 67.18
  Z"
/>
<path fill="#000000" d="
  M 711.01 102.00
  C 711.01 145.10 675.42 180.04 631.51 180.04
  C 587.60 180.04 552.01 145.10 552.01 102.00
  C 552.01 58.90 587.60 23.96 631.51 23.96
  C 675.42 23.96 711.01 58.90 711.01 102.00
  Z
  M 667.97 102.00
  C 667.97 82.40 651.65 66.52 631.51 66.52
  C 611.37 66.52 595.05 82.40 595.05 102.00
  C 595.05 121.60 611.37 137.48 631.51 137.48
  C 651.65 137.48 667.97 121.60 667.97 102.00
  Z"
/>
<path fill="#000000" d="
  M 223.29 140.68
  C 223.75 140.91 224.25 141.02 224.80 141.02
  C 239.14 140.99 253.37 140.98 267.49 141.01
  C 269.13 141.02 270.46 142.35 270.46 143.99
  L 270.46 173.04
  C 270.46 174.70 269.12 176.04 267.46 176.04
  L 184.02 176.04
  C 182.35 176.04 181.00 174.69 181.00 173.02
  L 181.00 29.25
  C 181.00 27.08 182.08 26.00 184.25 26.00
  L 220.12 26.00
  C 221.71 26.00 223.00 27.29 223.00 28.88
  L 223.00 140.21
  C 223.00 140.41 223.11 140.59 223.29 140.68
  Z"
/>
<path fill="#000000" d="
  M 316.01 119.82
  C 316.02 136.88 328.34 147.21 345.20 143.58
  C 358.49 140.71 362.11 128.68 362.07 116.74
  C 361.98 89.47 361.96 60.14 362.02 28.76
  C 362.03 27.23 363.26 26.00 364.79 26.00
  L 401.21 26.00
  C 402.75 26.00 403.99 27.24 403.99 28.78
  C 404.02 60.83 404.01 91.31 403.96 120.23
  C 403.91 149.77 385.79 173.04 356.42 178.44
  C 338.48 181.73 317.53 180.45 301.52 171.16
  C 286.44 162.41 276.87 146.64 274.74 129.27
  C 274.17 124.56 273.89 119.40 273.92 113.79
  C 274.04 85.30 274.05 57.04 273.96 29.02
  C 273.95 27.35 275.30 26.00 276.97 26.00
  L 313.04 26.00
  C 314.68 26.00 316.01 27.33 316.01 28.97
  C 315.99 57.76 315.99 88.05 316.01 119.82
  Z"
/>
<path fill="#000000" d="
  M 756.86 93.04
  C 756.29 92.04 756.01 92.12 756.00 93.27
  L 756.00 173.25
  C 756.00 174.77 754.77 176.00 753.25 176.00
  L 717.00 176.00
  C 715.34 176.00 714.00 174.66 714.00 173.00
  L 714.00 29.00
  C 714.00 27.34 715.34 26.00 717.00 26.00
  L 754.33 26.00
  C 755.46 26.00 756.32 26.48 756.92 27.44
  L 803.19 101.70
  C 803.73 102.57 804.00 102.50 804.00 101.47
  L 804.00 28.75
  C 804.00 27.23 805.23 26.00 806.75 26.00
  L 843.00 26.00
  C 844.66 26.00 846.00 27.34 846.00 29.00
  L 846.00 173.25
  C 846.00 174.77 844.77 176.00 843.25 176.00
  L 805.69 176.00
  C 804.63 176.00 803.66 175.43 803.13 174.51
  L 756.86 93.04
  Z"
/>
<path fill="#000000" d="
  M 885.25 61.75
  L 853.56 61.75
  C 851.27 61.75 850.12 60.60 850.12 58.31
  L 850.12 28.92
  C 850.12 27.29 851.45 25.96 853.08 25.96
  L 960.92 25.96
  C 962.55 25.96 963.88 27.29 963.88 28.92
  L 963.88 58.31
  C 963.88 60.60 962.73 61.75 960.44 61.75
  L 928.50 61.75
  C 928.22 61.75 928.00 61.97 928.00 62.25
  L 928.00 173.25
  C 928.00 174.77 926.77 176.00 925.25 176.00
  L 889.00 176.00
  C 887.34 176.00 886.00 174.66 886.00 173.00
  L 886.00 62.50
  C 886.00 62.00 885.75 61.75 885.25 61.75
  Z"
/>
<path fill="#000000" d="
  M 1010.00 137.56
  L 1010.00 175.25
  C 1010.00 176.91 1008.66 178.25 1007.00 178.25
  L 971.00 178.25
  C 969.34 178.25 968.00 176.91 968.00 175.25
  L 968.00 29.28
  C 968.00 27.04 969.12 25.92 971.36 25.93
  C 991.96 26.02 1013.77 26.00 1036.80 25.88
  C 1044.57 25.84 1050.50 26.41 1054.61 27.59
  C 1078.22 34.37 1086.41 56.85 1086.53 79.37
  C 1086.62 96.12 1082.36 112.96 1069.51 124.03
  C 1069.16 124.32 1069.13 124.64 1069.42 124.99
  C 1081.06 139.04 1086.98 155.91 1087.17 175.61
  C 1087.19 177.05 1086.02 178.23 1084.58 178.23
  C 1071.06 178.26 1057.97 178.26 1045.31 178.24
  C 1043.55 178.23 1042.45 176.59 1042.41 174.97
  C 1041.82 154.89 1032.55 139.04 1010.67 136.95
  C 1010.22 136.90 1010.00 137.11 1010.00 137.56
  Z
  M 1010.00 65.20
  L 1010.00 96.86
  C 1010.00 97.68 1010.67 98.35 1011.49 98.35
  L 1028.43 98.35
  C 1037.01 98.35 1043.96 91.10 1043.96 82.16
  L 1043.96 79.90
  C 1043.96 70.96 1037.01 63.71 1028.43 63.71
  L 1011.49 63.71
  C 1010.67 63.71 1010.00 64.38 1010.00 65.20
  Z"
/>
<path fill="#000000" d="
  M 1295.29 140.68
  C 1295.74 140.91 1296.24 141.02 1296.79 141.02
  C 1311.08 140.99 1325.32 140.99 1339.49 141.01
  C 1341.13 141.01 1342.46 142.34 1342.46 143.98
  L 1342.46 173.04
  C 1342.46 174.70 1341.12 176.04 1339.46 176.04
  L 1255.77 176.04
  C 1254.24 176.04 1253.00 174.80 1253.00 173.27
  L 1253.00 29.25
  C 1253.00 27.08 1254.08 26.00 1256.25 26.00
  L 1292.00 26.00
  C 1293.66 26.00 1295.00 27.34 1295.00 29.00
  L 1295.00 140.21
  C 1295.00 140.41 1295.11 140.59 1295.29 140.68
  Z"
/>
<path fill="#ff2f27" d="
  M 1189.29 161.30
  C 1179.98 165.13 1170.30 165.62 1160.25 162.77
  C 1155.43 161.41 1151.46 159.59 1148.34 157.31
  C 1134.91 147.48 1128.56 134.47 1129.29 118.27
  C 1129.54 112.57 1131.60 105.63 1133.91 99.82
  C 1137.31 91.27 1141.41 83.06 1146.21 75.19
  C 1149.81 69.30 1153.36 63.34 1157.32 57.89
  C 1161.67 51.90 1166.39 45.84 1171.47 39.71
  C 1172.40 38.58 1173.39 37.53 1174.42 36.54
  C 1174.62 36.35 1174.95 36.43 1175.03 36.69
  C 1176.68 41.87 1178.73 47.03 1181.16 52.17
  C 1188.60 67.88 1198.11 82.51 1206.68 97.26
  C 1211.36 105.32 1216.96 116.35 1215.77 125.92
  C 1214.20 138.47 1208.42 148.51 1198.41 156.04
  C 1195.45 158.27 1192.41 160.03 1189.29 161.30
  Z
  M 1154.07 134.18
  C 1150.52 127.17 1148.97 119.74 1149.43 111.89
  C 1149.83 105.08 1151.09 97.82 1153.22 90.10
  C 1153.80 88.01 1153.13 87.47 1151.20 88.48
  C 1150.78 88.70 1150.41 88.97 1150.08 89.30
  C 1139.88 99.53 1134.43 114.34 1138.64 128.29
  C 1140.39 134.12 1142.96 138.96 1146.33 142.82
  C 1151.83 149.12 1161.35 155.28 1169.90 154.39
  C 1173.05 154.06 1173.25 153.10 1170.50 151.53
  C 1163.33 147.42 1157.85 141.64 1154.07 134.18
  Z"
/>
<path fill="#000000" d="
  M 1154.07 134.18
  C 1157.85 141.64 1163.33 147.42 1170.50 151.53
  C 1173.25 153.10 1173.05 154.06 1169.90 154.39
  C 1161.35 155.28 1151.83 149.12 1146.33 142.82
  C 1142.96 138.96 1140.39 134.12 1138.64 128.29
  C 1134.43 114.34 1139.88 99.53 1150.08 89.30
  C 1150.41 88.97 1150.78 88.70 1151.20 88.48
  C 1153.13 87.47 1153.80 88.01 1153.22 90.10
  C 1151.09 97.82 1149.83 105.08 1149.43 111.89
  C 1148.97 119.74 1150.52 127.17 1154.07 134.18
  Z"
/>
</svg>
