<?xml version="1.0" encoding="UTF-8" standalone="no"?>
<!DOCTYPE svg PUBLIC "-//W3C//DTD SVG 1.1//EN" "http://www.w3.org/Graphics/SVG/1.1/DTD/svg11.dtd">
<svg xmlns="http://www.w3.org/2000/svg" version="1.1" viewBox="0.00 0.00 3894.00 538.00">
<g stroke-width="2.00" fill="none" stroke-linecap="butt">
<path stroke="#7b1757" vector-effect="non-scaling-stroke" d="
  M 3468.05 266.16
  C 3487.44 256.10 3511.99 258.37 3531.84 266.37
  C 3532.51 266.64 3533.15 266.63 3533.75 266.32
  C 3534.24 266.07 3534.33 265.71 3534.02 265.25
  C 3520.18 244.58 3506.44 225.77 3492.79 208.80
  C 3478.98 191.63 3464.48 173.73 3449.29 155.08
  C 3431.98 133.84 3415.54 110.25 3399.98 84.31
  C 3399.80 84.01 3399.38 83.95 3399.13 84.20
  C 3398.95 84.37 3398.86 84.59 3398.86 84.84
  C 3398.88 145.01 3398.88 205.38 3398.87 265.93
  C 3398.87 266.54 3399.49 266.96 3400.06 266.73
  C 3416.39 260.00 3432.82 258.21 3449.36 261.37
  C 3454.50 262.35 3459.69 264.38 3464.53 266.33
  C 3465.67 266.79 3466.96 266.73 3468.05 266.16"
/>
<path stroke="#018395" vector-effect="non-scaling-stroke" d="
  M 3350.19 353.36
  C 3349.71 340.09 3351.61 327.77 3355.88 316.41
  C 3359.09 307.88 3363.90 300.10 3370.31 293.06
  C 3371.94 291.27 3373.36 289.11 3373.35 286.87
  C 3373.16 219.56 3373.27 156.84 3373.67 98.69
  C 3373.68 97.56 3373.81 96.34 3374.06 95.05
  C 3374.24 94.08 3373.98 93.94 3373.27 94.63
  C 3373.07 94.82 3372.90 95.04 3372.75 95.29
  C 3357.77 120.02 3339.81 145.04 3318.86 170.36
  C 3300.19 192.92 3282.58 214.33 3265.57 237.57
  C 3251.19 257.21 3240.41 278.97 3233.24 302.86
  C 3217.42 355.55 3232.19 409.08 3267.68 450.29
  C 3286.87 472.58 3314.59 488.83 3342.01 497.67
  C 3369.80 506.63 3399.89 507.29 3428.89 501.11
  C 3435.74 499.65 3442.68 497.50 3449.72 494.66
  C 3450.28 494.43 3450.74 494.09 3451.09 493.63
  C 3451.43 493.19 3451.32 492.96 3450.77 492.93
  L 3448.55 492.80
  C 3448.16 492.78 3447.87 492.59 3447.70 492.23
  C 3447.09 490.94 3446.31 489.81 3445.34 488.85
  C 3437.51 481.08 3427.95 472.10 3416.64 461.89
  C 3411.03 456.84 3401.52 447.67 3388.10 434.40
  C 3372.79 419.28 3359.55 400.18 3354.04 379.47
  C 3352.06 372.02 3350.89 365.63 3350.54 360.32
  C 3350.39 358.11 3350.28 355.79 3350.19 353.36"
/>
<path stroke="#7b1757" vector-effect="non-scaling-stroke" d="
  M 3376.11 354.48
  C 3377.39 373.37 3383.95 391.57 3396.74 405.21
  C 3399.35 408.00 3402.48 411.14 3406.11 414.61
  C 3425.69 433.34 3444.94 452.07 3463.85 470.80
  C 3465.56 472.49 3467.28 472.50 3469.02 470.85
  C 3482.61 457.98 3496.57 444.84 3510.88 431.43
  C 3518.23 424.55 3525.36 417.33 3532.61 410.11
  C 3547.66 395.13 3556.00 373.83 3557.43 352.97
  C 3558.78 333.26 3552.51 316.12 3538.63 301.55
  C 3527.45 289.81 3511.31 284.72 3495.08 285.24
  C 3484.23 285.58 3474.39 288.81 3465.57 294.93
  C 3464.86 295.42 3463.93 295.42 3463.21 294.94
  C 3436.06 276.57 3400.00 286.03 3384.36 314.69
  C 3377.87 326.59 3375.12 339.85 3376.11 354.48"
/>
<path stroke="#80eef9" vector-effect="non-scaling-stroke" d="
  M 3317.79 219.55
  C 3318.29 212.98 3313.05 208.91 3307.04 211.71
  C 3302.61 213.78 3295.68 219.70 3295.41 225.17
  C 3295.06 232.38 3304.02 235.47 3309.49 232.08
  C 3314.63 228.88 3317.40 224.70 3317.79 219.55"
/>
<path stroke="#80eef9" vector-effect="non-scaling-stroke" d="
  M 3282.06 268.28
  C 3284.85 261.23 3289.48 255.21 3295.93 250.24
  C 3296.82 249.56 3297.33 248.63 3297.46 247.46
  C 3297.89 243.49 3296.36 240.75 3292.86 239.24
  C 3289.00 237.57 3285.44 238.25 3282.19 241.29
  C 3273.87 249.08 3264.36 261.71 3264.18 273.27
  C 3264.10 277.88 3269.68 279.44 3273.29 278.50
  C 3277.85 277.31 3280.40 272.46 3282.06 268.28"
/>
<path stroke="#80eef9" vector-effect="non-scaling-stroke" d="
  M 3259.9936 296.3373
  C 3262.24 297.58 3265.14 296.62 3266.4722 294.2024
  C 3267.81 291.78 3267.07 288.82 3264.8264 287.5827
  C 3262.58 286.34 3259.68 287.30 3258.3478 289.7176
  C 3257.01 292.14 3257.75 295.10 3259.9936 296.3373"
/>
<path stroke="#fb82bb" vector-effect="non-scaling-stroke" d="
  M 3417.01 311.71
  C 3406.78 319.14 3399.37 329.00 3395.21 340.77
  C 3393.41 345.84 3392.74 351.17 3396.51 355.43
  C 3398.02 357.13 3399.90 357.99 3402.14 358.02
  C 3407.08 358.07 3409.88 355.63 3411.32 351.22
  C 3412.75 346.86 3414.03 342.37 3416.16 338.41
  C 3419.20 332.75 3423.86 328.38 3430.14 325.30
  C 3435.04 322.90 3442.05 320.88 3440.09 313.55
  C 3439.22 310.32 3437.01 308.17 3433.45 307.08
  C 3427.53 305.27 3421.86 308.19 3417.01 311.71"
/>
</g>
<path fill="#002938" d="
  M 3304.20 510.20
  C 3277.53 496.52 3255.73 478.36 3238.80 455.71
  C 3221.95 433.17 3210.62 408.12 3204.83 380.55
  C 3198.79 351.87 3200.99 319.68 3210.45 290.29
  C 3217.82 267.39 3229.15 245.21 3244.45 223.74
  C 3253.39 211.19 3261.63 200.40 3269.16 191.39
  C 3286.36 170.81 3302.04 151.70 3316.20 134.07
  C 3320.11 129.20 3324.16 123.93 3328.34 118.24
  C 3344.77 95.91 3359.58 72.81 3372.75 48.93
  C 3377.75 39.87 3382.27 30.51 3386.67 21.26
  C 3386.86 20.86 3387.11 20.48 3387.41 20.14
  C 3389.67 17.62 3392.28 18.11 3393.61 20.99
  C 3414.30 65.52 3442.61 107.56 3474.88 146.16
  C 3495.26 170.54 3516.77 195.89 3535.81 221.81
  C 3554.05 246.63 3568.56 273.35 3576.83 303.03
  C 3585.00 332.35 3583.97 364.28 3575.22 393.26
  C 3566.95 420.67 3553.97 444.57 3536.29 464.96
  C 3516.25 488.08 3490.36 506.84 3461.47 517.74
  C 3410.31 537.05 3352.98 535.23 3304.20 510.20
  Z
  M 3468.05 266.16
  C 3487.44 256.10 3511.99 258.37 3531.84 266.37
  C 3532.51 266.64 3533.15 266.63 3533.75 266.32
  C 3534.24 266.07 3534.33 265.71 3534.02 265.25
  C 3520.18 244.58 3506.44 225.77 3492.79 208.80
  C 3478.98 191.63 3464.48 173.73 3449.29 155.08
  C 3431.98 133.84 3415.54 110.25 3399.98 84.31
  C 3399.80 84.01 3399.38 83.95 3399.13 84.20
  C 3398.95 84.37 3398.86 84.59 3398.86 84.84
  C 3398.88 145.01 3398.88 205.38 3398.87 265.93
  C 3398.87 266.54 3399.49 266.96 3400.06 266.73
  C 3416.39 260.00 3432.82 258.21 3449.36 261.37
  C 3454.50 262.35 3459.69 264.38 3464.53 266.33
  C 3465.67 266.79 3466.96 266.73 3468.05 266.16
  Z
  M 3350.19 353.36
  C 3349.71 340.09 3351.61 327.77 3355.88 316.41
  C 3359.09 307.88 3363.90 300.10 3370.31 293.06
  C 3371.94 291.27 3373.36 289.11 3373.35 286.87
  C 3373.16 219.56 3373.27 156.84 3373.67 98.69
  C 3373.68 97.56 3373.81 96.34 3374.06 95.05
  C 3374.24 94.08 3373.98 93.94 3373.27 94.63
  C 3373.07 94.82 3372.90 95.04 3372.75 95.29
  C 3357.77 120.02 3339.81 145.04 3318.86 170.36
  C 3300.19 192.92 3282.58 214.33 3265.57 237.57
  C 3251.19 257.21 3240.41 278.97 3233.24 302.86
  C 3217.42 355.55 3232.19 409.08 3267.68 450.29
  C 3286.87 472.58 3314.59 488.83 3342.01 497.67
  C 3369.80 506.63 3399.89 507.29 3428.89 501.11
  C 3435.74 499.65 3442.68 497.50 3449.72 494.66
  C 3450.28 494.43 3450.74 494.09 3451.09 493.63
  C 3451.43 493.19 3451.32 492.96 3450.77 492.93
  L 3448.55 492.80
  C 3448.16 492.78 3447.87 492.59 3447.70 492.23
  C 3447.09 490.94 3446.31 489.81 3445.34 488.85
  C 3437.51 481.08 3427.95 472.10 3416.64 461.89
  C 3411.03 456.84 3401.52 447.67 3388.10 434.40
  C 3372.79 419.28 3359.55 400.18 3354.04 379.47
  C 3352.06 372.02 3350.89 365.63 3350.54 360.32
  C 3350.39 358.11 3350.28 355.79 3350.19 353.36
  Z
  M 3376.11 354.48
  C 3377.39 373.37 3383.95 391.57 3396.74 405.21
  C 3399.35 408.00 3402.48 411.14 3406.11 414.61
  C 3425.69 433.34 3444.94 452.07 3463.85 470.80
  C 3465.56 472.49 3467.28 472.50 3469.02 470.85
  C 3482.61 457.98 3496.57 444.84 3510.88 431.43
  C 3518.23 424.55 3525.36 417.33 3532.61 410.11
  C 3547.66 395.13 3556.00 373.83 3557.43 352.97
  C 3558.78 333.26 3552.51 316.12 3538.63 301.55
  C 3527.45 289.81 3511.31 284.72 3495.08 285.24
  C 3484.23 285.58 3474.39 288.81 3465.57 294.93
  C 3464.86 295.42 3463.93 295.42 3463.21 294.94
  C 3436.06 276.57 3400.00 286.03 3384.36 314.69
  C 3377.87 326.59 3375.12 339.85 3376.11 354.48
  Z"
/>
<path fill="#002938" d="
  M 323.36 355.48
  C 323.73 354.92 323.33 354.17 322.66 354.17
  C 288.27 354.18 254.47 354.18 221.27 354.17
  C 216.99 354.17 214.14 352.63 212.71 349.54
  C 211.96 347.93 211.60 345.98 211.61 343.69
  C 211.76 313.86 211.78 285.07 211.66 257.31
  C 211.64 252.78 215.82 248.95 220.30 248.95
  C 299.69 248.92 379.64 248.92 460.15 248.94
  C 463.42 248.94 466.51 250.96 467.77 253.95
  C 468.32 255.26 468.60 256.88 468.63 258.81
  C 468.94 281.06 468.80 298.85 468.20 312.18
  C 466.75 344.79 458.56 375.58 443.65 404.57
  C 417.00 456.36 370.32 496.59 315.55 516.25
  C 272.42 531.74 228.86 534.73 184.89 525.23
  C 157.69 519.36 131.93 508.70 107.62 493.27
  C 64.02 465.60 31.59 424.19 14.23 376.05
  C -4.51 324.09 -2.39 267.36 18.02 216.85
  C 33.29 179.09 57.27 147.32 89.97 121.53
  C 95.24 117.38 100.59 113.55 106.03 110.05
  C 149.70 81.96 197.58 69.33 249.68 72.16
  C 256.29 72.52 262.95 73.23 269.66 74.28
  C 330.24 83.83 379.95 112.33 418.79 159.78
  C 421.03 162.53 422.28 164.67 422.55 166.20
  C 423.25 170.30 421.65 173.47 418.50 175.83
  C 390.41 196.86 361.28 218.65 331.13 241.21
  C 326.42 244.73 321.11 243.91 317.70 239.42
  C 305.80 223.74 291.09 212.29 273.58 205.07
  C 233.10 188.39 186.54 197.68 156.51 229.28
  C 139.02 247.68 129.40 269.42 127.65 294.49
  C 123.48 354.14 170.06 402.88 228.74 405.12
  C 249.83 405.93 269.46 400.99 287.63 390.32
  C 301.53 382.15 313.44 370.53 323.36 355.48
  Z"
/>
<path fill="#002938" d="
  M 2037.6396 300.7321
  C 2037.86 427.44 1933.41 530.34 1804.3404 530.5697
  C 1675.27 530.79 1570.46 428.26 1570.2404 301.5479
  C 1570.02 174.84 1674.47 71.94 1803.5396 71.7103
  C 1932.61 71.49 2037.42 174.02 2037.6396 300.7321
  Z
  M 1910.9498 301.3268
  C 1911.05 243.82 1863.22 197.11 1804.1217 197.0102
  C 1745.02 196.91 1697.03 243.44 1696.9302 300.9532
  C 1696.83 358.46 1744.66 405.17 1803.7583 405.2698
  C 1862.86 405.37 1910.85 358.84 1910.9498 301.3268
  Z"
/>
<path fill="#002938" d="
  M 1292.14 87.44
  C 1312.19 79.79 1332.20 75.03 1352.19 73.17
  C 1403.01 68.44 1449.68 78.32 1492.20 102.79
  C 1514.94 115.88 1535.88 133.78 1555.01 156.49
  C 1556.26 157.97 1557.10 159.46 1557.55 160.95
  C 1558.67 164.65 1555.52 168.95 1552.66 171.19
  C 1523.53 194.02 1495.73 215.91 1469.28 236.86
  C 1468.35 237.59 1467.30 238.08 1466.11 238.32
  C 1461.19 239.30 1458.27 236.84 1455.24 233.56
  C 1431.03 207.36 1392.79 191.33 1357.17 198.61
  C 1331.19 203.93 1310.01 216.25 1293.64 235.57
  C 1264.03 270.52 1262.47 321.69 1287.97 359.10
  C 1301.98 379.66 1323.74 395.20 1348.13 401.60
  C 1390.18 412.63 1429.90 396.88 1458.58 365.30
  C 1462.42 361.06 1468.52 363.93 1472.12 366.78
  C 1499.70 388.57 1527.13 410.24 1554.40 431.79
  C 1560.84 436.88 1557.61 443.22 1553.00 448.44
  C 1538.47 464.85 1522.77 478.75 1505.90 490.14
  C 1439.85 534.74 1354.96 543.63 1282.02 510.99
  C 1250.66 496.96 1223.74 477.20 1201.26 451.72
  C 1161.63 406.80 1141.07 347.41 1144.54 287.56
  C 1147.40 238.24 1166.94 190.74 1198.72 153.40
  C 1224.20 123.47 1255.34 101.48 1292.14 87.44
  Z"
/>
<path fill="#002938" d="
  M 3090.25 366.40
  C 3089.74 366.83 3089.68 367.59 3090.11 368.11
  C 3113.66 396.47 3129.26 428.60 3136.93 464.51
  C 3140.38 480.65 3142.28 497.34 3142.63 514.59
  C 3142.70 517.70 3142.38 519.91 3141.69 521.23
  C 3140.03 524.41 3137.11 525.25 3133.77 525.25
  C 3095.16 525.29 3057.14 525.30 3019.72 525.28
  C 3015.50 525.28 3012.11 521.96 3011.34 518.01
  C 3010.97 516.13 3010.75 513.92 3010.70 511.37
  C 3010.54 504.08 3009.60 495.99 3007.87 487.11
  C 3001.24 453.01 2983.01 424.66 2950.22 411.52
  C 2940.03 407.43 2929.09 404.91 2917.40 403.96
  C 2916.61 403.90 2915.93 404.51 2915.93 405.30
  C 2915.92 439.36 2915.93 476.01 2915.94 515.26
  C 2915.94 521.17 2912.72 525.31 2906.54 525.30
  C 2871.62 525.25 2836.83 525.25 2802.16 525.31
  C 2796.77 525.32 2792.37 522.05 2792.37 516.31
  C 2792.34 377.06 2792.34 233.88 2792.37 86.78
  C 2792.37 82.15 2794.29 79.25 2798.12 78.06
  C 2799.42 77.65 2802.43 77.46 2807.15 77.49
  C 2872.28 77.79 2936.94 77.76 3001.12 77.39
  C 3009.20 77.35 3017.61 77.79 3026.34 78.71
  C 3034.09 79.53 3040.81 80.74 3046.51 82.33
  C 3105.70 98.91 3133.40 150.79 3139.34 208.51
  C 3141.57 230.20 3141.21 251.38 3138.26 272.05
  C 3133.04 308.71 3118.12 342.57 3090.25 366.40
  Z
  M 2915.91 193.25
  L 2915.91 285.77
  C 2915.91 288.32 2917.98 290.39 2920.53 290.39
  L 2968.61 290.39
  C 2994.51 290.39 3015.51 269.37 3015.51 243.45
  L 3015.51 235.57
  C 3015.51 209.65 2994.51 188.63 2968.61 188.63
  L 2920.53 188.63
  C 2917.98 188.63 2915.91 190.70 2915.91 193.25
  Z"
/>
<path fill="#002938" d="
  M 603.89 413.25
  C 603.89 413.73 604.12 414.19 604.51 414.48
  C 605.58 415.26 606.76 415.65 608.04 415.66
  C 648.91 415.69 691.06 415.70 734.47 415.67
  C 739.16 415.66 743.29 419.28 743.29 424.12
  C 743.28 452.91 743.28 481.64 743.28 510.30
  C 743.28 513.68 740.97 516.82 737.92 518.10
  C 736.85 518.55 735.67 518.78 734.38 518.78
  C 649.68 518.75 568.08 518.75 489.58 518.78
  C 483.71 518.79 480.28 514.52 480.29 508.87
  C 480.31 369.99 480.31 229.70 480.29 88.01
  C 480.28 81.14 483.44 77.70 489.75 77.71
  C 524.39 77.71 559.12 77.71 593.95 77.70
  C 596.41 77.70 598.31 78.08 599.64 78.85
  C 602.43 80.45 603.90 83.20 603.90 86.36
  C 603.87 196.04 603.86 305.00 603.89 413.25
  Z"
/>
<path fill="#002938" d="
  M 957.26 424.24
  C 976.53 421.17 991.83 412.45 1001.41 395.19
  C 1009.13 381.29 1012.31 363.44 1012.27 347.31
  C 1012.05 259.96 1012.00 173.06 1012.13 86.60
  C 1012.13 81.12 1015.67 77.65 1021.15 77.67
  C 1056.84 77.80 1091.84 77.79 1126.14 77.63
  C 1132.07 77.61 1135.63 80.87 1135.64 86.75
  C 1135.77 196.37 1135.72 287.00 1135.49 358.63
  C 1135.43 377.03 1132.14 396.28 1125.62 416.37
  C 1123.59 422.62 1121.06 428.85 1118.03 435.06
  C 1098.93 474.16 1068.72 501.54 1027.39 517.20
  C 1016.36 521.38 1003.75 524.62 989.55 526.91
  C 957.28 532.13 923.76 532.14 891.39 525.56
  C 876.27 522.49 861.95 517.87 848.43 511.68
  C 829.26 502.91 812.63 490.87 798.52 475.55
  C 776.39 451.53 762.18 421.10 756.84 388.78
  C 754.02 371.73 753.24 352.83 753.33 334.74
  C 753.48 302.27 753.53 269.35 753.49 236.00
  C 753.49 234.91 753.49 233.82 753.50 232.75
  C 753.65 208.55 753.71 184.30 753.69 160.00
  C 753.69 159.34 753.69 158.67 753.68 158.00
  C 753.56 134.47 753.49 111.63 753.48 89.47
  C 753.48 85.96 753.85 83.55 754.58 82.24
  C 756.13 79.44 759.24 77.71 762.49 77.71
  C 797.67 77.73 832.71 77.72 867.61 77.69
  C 872.54 77.68 877.06 80.81 877.06 86.14
  C 877.05 178.42 877.05 266.96 877.07 351.76
  C 877.07 354.38 877.16 357.05 877.34 359.78
  C 880.25 404.04 913.08 431.29 957.26 424.24
  Z"
/>
<path fill="#002938" d="
  M 2310.37 301.54
  C 2310.56 301.16 2310.65 300.77 2310.65 300.37
  C 2310.64 230.16 2310.60 159.39 2310.55 88.06
  C 2310.55 81.81 2312.69 77.70 2319.88 77.71
  C 2355.92 77.74 2391.02 77.74 2425.18 77.71
  C 2430.51 77.71 2434.22 81.86 2434.22 87.10
  C 2434.21 227.67 2434.20 368.73 2434.21 510.27
  C 2434.21 514.85 2430.74 518.61 2426.08 518.61
  C 2389.10 518.59 2352.20 518.59 2315.37 518.61
  C 2312.27 518.61 2309.56 516.93 2308.05 514.27
  C 2261.80 432.94 2216.37 352.92 2171.75 274.21
  C 2171.51 273.79 2171.22 273.44 2170.88 273.16
  C 2170.46 272.82 2169.84 273.11 2169.84 273.65
  C 2169.84 351.79 2169.84 430.49 2169.83 509.76
  C 2169.83 514.81 2166.63 518.63 2161.41 518.62
  C 2124.61 518.58 2089.40 518.58 2055.79 518.63
  C 2053.58 518.64 2051.69 518.18 2050.14 517.27
  C 2047.54 515.75 2046.24 513.24 2046.24 509.75
  C 2046.25 369.30 2046.25 228.86 2046.25 88.42
  C 2046.25 85.39 2046.66 83.23 2047.48 81.96
  C 2048.47 80.43 2049.73 79.30 2051.24 78.59
  C 2052.44 78.02 2053.99 77.74 2055.90 77.74
  C 2088.10 77.71 2122.77 77.70 2159.90 77.73
  C 2165.76 77.73 2169.54 77.29 2172.39 81.86
  C 2217.90 154.91 2263.53 228.16 2309.28 301.60
  C 2309.54 302.01 2310.16 301.98 2310.37 301.54
  Z"
/>
<path fill="#002938" d="
  M 2675.54 183.37
  C 2674.77 184.27 2674.94 185.79 2674.94 186.97
  C 2674.97 294.26 2675.00 401.58 2675.01 508.95
  C 2675.01 511.66 2674.62 513.63 2673.83 514.86
  C 2672.45 517.00 2669.88 518.61 2667.29 518.60
  C 2629.96 518.59 2594.35 518.60 2560.44 518.63
  C 2553.76 518.63 2551.38 513.58 2551.39 507.74
  C 2551.46 399.77 2551.47 292.09 2551.40 184.70
  C 2551.40 183.77 2550.65 183.02 2549.72 183.02
  C 2520.68 182.95 2489.87 182.98 2457.28 183.10
  C 2450.40 183.13 2445.96 180.38 2445.96 172.61
  C 2445.97 145.34 2445.96 117.35 2445.94 88.66
  C 2445.94 86.07 2446.29 84.01 2447.00 82.48
  C 2448.32 79.62 2451.18 77.73 2454.34 77.73
  C 2559.95 77.72 2665.84 77.71 2772.01 77.70
  C 2773.70 77.70 2775.14 78.11 2776.34 78.94
  C 2779.30 80.96 2780.39 83.44 2780.39 86.72
  C 2780.36 116.12 2780.35 144.90 2780.36 173.06
  C 2780.36 178.88 2777.60 182.91 2771.05 182.93
  C 2739.87 183.01 2708.30 183.04 2676.34 183.01
  C 2676.03 183.01 2675.74 183.14 2675.54 183.37
  Z"
/>
<path fill="#002938" d="
  M 3630.02 513.22
  C 3629.76 512.57 3629.63 511.91 3629.63 511.25
  C 3629.60 369.96 3629.59 228.66 3629.60 87.36
  C 3629.60 80.08 3633.69 77.66 3640.15 77.67
  C 3673.42 77.73 3708.07 77.74 3744.11 77.69
  C 3745.89 77.68 3747.46 78.11 3748.81 78.96
  C 3752.29 81.14 3753.19 83.82 3753.19 87.94
  C 3753.19 196.51 3753.19 304.68 3753.19 412.46
  C 3753.19 414.21 3754.60 415.62 3756.35 415.63
  C 3799.23 415.74 3840.83 415.73 3881.15 415.59
  C 3884.06 415.58 3886.20 415.88 3887.59 416.49
  C 3890.75 417.88 3892.58 421.04 3892.58 424.46
  C 3892.57 455.22 3892.57 483.95 3892.56 510.64
  C 3892.55 515.46 3887.93 518.78 3883.47 518.78
  C 3800.61 518.77 3718.78 518.76 3637.99 518.77
  C 3634.25 518.77 3631.45 516.83 3630.02 513.22
  Z"
/>
<path fill="#f60576" d="
  M 3531.84 266.37
  C 3511.99 258.37 3487.44 256.10 3468.05 266.16
  C 3466.96 266.73 3465.67 266.79 3464.53 266.33
  C 3459.69 264.38 3454.50 262.35 3449.36 261.37
  C 3432.82 258.21 3416.39 260.00 3400.06 266.73
  C 3399.49 266.96 3398.87 266.54 3398.87 265.93
  C 3398.88 205.38 3398.88 145.01 3398.86 84.84
  C 3398.86 84.59 3398.95 84.37 3399.13 84.20
  C 3399.38 83.95 3399.80 84.01 3399.98 84.31
  C 3415.54 110.25 3431.98 133.84 3449.29 155.08
  C 3464.48 173.73 3478.98 191.63 3492.79 208.80
  C 3506.44 225.77 3520.18 244.58 3534.02 265.25
  C 3534.33 265.71 3534.24 266.07 3533.75 266.32
  C 3533.15 266.63 3532.51 266.64 3531.84 266.37
  Z"
/>
<path fill="#01ddf2" d="
  M 3350.19 353.36
  C 3350.28 355.79 3350.39 358.11 3350.54 360.32
  C 3350.89 365.63 3352.06 372.02 3354.04 379.47
  C 3359.55 400.18 3372.79 419.28 3388.10 434.40
  C 3401.52 447.67 3411.03 456.84 3416.64 461.89
  C 3427.95 472.10 3437.51 481.08 3445.34 488.85
  C 3446.31 489.81 3447.09 490.94 3447.70 492.23
  C 3447.87 492.59 3448.16 492.78 3448.55 492.80
  L 3450.77 492.93
  C 3451.32 492.96 3451.43 493.19 3451.09 493.63
  C 3450.74 494.09 3450.28 494.43 3449.72 494.66
  C 3442.68 497.50 3435.74 499.65 3428.89 501.11
  C 3399.89 507.29 3369.80 506.63 3342.01 497.67
  C 3314.59 488.83 3286.87 472.58 3267.68 450.29
  C 3232.19 409.08 3217.42 355.55 3233.24 302.86
  C 3240.41 278.97 3251.19 257.21 3265.57 237.57
  C 3282.58 214.33 3300.19 192.92 3318.86 170.36
  C 3339.81 145.04 3357.77 120.02 3372.75 95.29
  C 3372.90 95.04 3373.07 94.82 3373.27 94.63
  C 3373.98 93.94 3374.24 94.08 3374.06 95.05
  C 3373.81 96.34 3373.68 97.56 3373.67 98.69
  C 3373.27 156.84 3373.16 219.56 3373.35 286.87
  C 3373.36 289.11 3371.94 291.27 3370.31 293.06
  C 3363.90 300.10 3359.09 307.88 3355.88 316.41
  C 3351.61 327.77 3349.71 340.09 3350.19 353.36
  Z
  M 3317.79 219.55
  C 3318.29 212.98 3313.05 208.91 3307.04 211.71
  C 3302.61 213.78 3295.68 219.70 3295.41 225.17
  C 3295.06 232.38 3304.02 235.47 3309.49 232.08
  C 3314.63 228.88 3317.40 224.70 3317.79 219.55
  Z
  M 3282.06 268.28
  C 3284.85 261.23 3289.48 255.21 3295.93 250.24
  C 3296.82 249.56 3297.33 248.63 3297.46 247.46
  C 3297.89 243.49 3296.36 240.75 3292.86 239.24
  C 3289.00 237.57 3285.44 238.25 3282.19 241.29
  C 3273.87 249.08 3264.36 261.71 3264.18 273.27
  C 3264.10 277.88 3269.68 279.44 3273.29 278.50
  C 3277.85 277.31 3280.40 272.46 3282.06 268.28
  Z
  M 3259.9936 296.3373
  C 3262.24 297.58 3265.14 296.62 3266.4722 294.2024
  C 3267.81 291.78 3267.07 288.82 3264.8264 287.5827
  C 3262.58 286.34 3259.68 287.30 3258.3478 289.7176
  C 3257.01 292.14 3257.75 295.10 3259.9936 296.3373
  Z"
/>
<path fill="#ffffff" d="
  M 3307.04 211.71
  C 3313.05 208.91 3318.29 212.98 3317.79 219.55
  C 3317.40 224.70 3314.63 228.88 3309.49 232.08
  C 3304.02 235.47 3295.06 232.38 3295.41 225.17
  C 3295.68 219.70 3302.61 213.78 3307.04 211.71
  Z"
/>
<path fill="#ffffff" d="
  M 3282.06 268.28
  C 3280.40 272.46 3277.85 277.31 3273.29 278.50
  C 3269.68 279.44 3264.10 277.88 3264.18 273.27
  C 3264.36 261.71 3273.87 249.08 3282.19 241.29
  C 3285.44 238.25 3289.00 237.57 3292.86 239.24
  C 3296.36 240.75 3297.89 243.49 3297.46 247.46
  C 3297.33 248.63 3296.82 249.56 3295.93 250.24
  C 3289.48 255.21 3284.85 261.23 3282.06 268.28
  Z"
/>
<path fill="#f60576" d="
  M 3376.11 354.48
  C 3375.12 339.85 3377.87 326.59 3384.36 314.69
  C 3400.00 286.03 3436.06 276.57 3463.21 294.94
  C 3463.93 295.42 3464.86 295.42 3465.57 294.93
  C 3474.39 288.81 3484.23 285.58 3495.08 285.24
  C 3511.31 284.72 3527.45 289.81 3538.63 301.55
  C 3552.51 316.12 3558.78 333.26 3557.43 352.97
  C 3556.00 373.83 3547.66 395.13 3532.61 410.11
  C 3525.36 417.33 3518.23 424.55 3510.88 431.43
  C 3496.57 444.84 3482.61 457.98 3469.02 470.85
  C 3467.28 472.50 3465.56 472.49 3463.85 470.80
  C 3444.94 452.07 3425.69 433.34 3406.11 414.61
  C 3402.48 411.14 3399.35 408.00 3396.74 405.21
  C 3383.95 391.57 3377.39 373.37 3376.11 354.48
  Z
  M 3417.01 311.71
  C 3406.78 319.14 3399.37 329.00 3395.21 340.77
  C 3393.41 345.84 3392.74 351.17 3396.51 355.43
  C 3398.02 357.13 3399.90 357.99 3402.14 358.02
  C 3407.08 358.07 3409.88 355.63 3411.32 351.22
  C 3412.75 346.86 3414.03 342.37 3416.16 338.41
  C 3419.20 332.75 3423.86 328.38 3430.14 325.30
  C 3435.04 322.90 3442.05 320.88 3440.09 313.55
  C 3439.22 310.32 3437.01 308.17 3433.45 307.08
  C 3427.53 305.27 3421.86 308.19 3417.01 311.71
  Z"
/>
<ellipse fill="#ffffff" cx="0.00" cy="0.00" transform="translate(3262.41,291.96) rotate(118.9)" rx="5.00" ry="4.64"/>
<path fill="#ffffff" d="
  M 3395.21 340.77
  C 3399.37 329.00 3406.78 319.14 3417.01 311.71
  C 3421.86 308.19 3427.53 305.27 3433.45 307.08
  C 3437.01 308.17 3439.22 310.32 3440.09 313.55
  C 3442.05 320.88 3435.04 322.90 3430.14 325.30
  C 3423.86 328.38 3419.20 332.75 3416.16 338.41
  C 3414.03 342.37 3412.75 346.86 3411.32 351.22
  C 3409.88 355.63 3407.08 358.07 3402.14 358.02
  C 3399.90 357.99 3398.02 357.13 3396.51 355.43
  C 3392.74 351.17 3393.41 345.84 3395.21 340.77
  Z"
/>
<path fill="#002938" d="
  M 3169.86 317.94
  C 3169.98 316.31 3170.01 314.68 3169.96 313.04
  C 3169.95 312.95 3170.00 312.90 3170.09 312.89
  L 3170.10 312.89
  C 3170.20 312.88 3170.26 312.92 3170.28 313.03
  C 3170.57 314.68 3170.50 316.34 3170.08 318.02
  C 3170.07 318.07 3170.03 318.09 3169.98 318.08
  L 3169.98 318.08
  C 3169.89 318.07 3169.85 318.02 3169.86 317.94
  Z"
/>
</svg>
